<?xml version="1.0" standalone="no"?>
<!DOCTYPE svg PUBLIC "-//W3C//DTD SVG 20010904//EN"
 "http://www.w3.org/TR/2001/REC-SVG-20010904/DTD/svg10.dtd">
<svg version="1.0" xmlns="http://www.w3.org/2000/svg"
 width="600.000000pt" height="600.000000pt" viewBox="0 0 600.000000 600.000000"
 preserveAspectRatio="xMidYMid meet">
<metadata>
Created by potrace 1.14, written by Peter Selinger 2001-2017
</metadata>
<g transform="translate(0.000000,600.000000) scale(0.100000,-0.100000)"
fill="#000000" stroke="none">
<path d="M4004 5251 c5 -8 3 -11 -5 -10 -8 2 -34 -1 -59 -5 -25 -4 -56 -9 -70
-12 -14 -2 -40 -8 -59 -14 -19 -5 -38 -7 -42 -4 -5 3 -9 1 -9 -4 0 -5 -15 -13
-32 -17 -18 -4 -35 -8 -38 -9 -3 -1 -11 -5 -18 -10 -7 -4 -20 -5 -28 -2 -10 4
-13 2 -8 -6 5 -8 1 -9 -12 -4 -10 4 -15 4 -11 0 7 -8 -110 -69 -125 -66 -5 1
-8 -2 -8 -6 0 -12 -59 -44 -70 -37 -6 3 -10 0 -10 -7 0 -17 -37 -41 -51 -33
-5 4 -8 1 -7 -7 2 -7 -3 -12 -10 -10 -8 1 -11 -2 -8 -7 3 -5 -7 -17 -22 -26
-15 -10 -31 -24 -35 -32 -4 -7 -13 -13 -18 -13 -6 0 -7 5 -3 12 5 7 3 8 -5 4
-7 -5 -10 -11 -6 -14 3 -3 -9 -21 -27 -39 -26 -27 -34 -31 -47 -20 -14 11 -14
10 -2 -5 11 -15 9 -21 -19 -49 -17 -18 -38 -42 -46 -55 -10 -14 -23 -21 -35
-19 -11 2 -17 0 -14 -6 4 -5 11 -7 16 -4 5 4 9 1 9 -4 0 -6 -4 -11 -10 -11 -5
0 -10 -7 -10 -15 0 -8 -4 -15 -10 -15 -5 0 -10 -7 -10 -15 0 -8 -4 -15 -9 -15
-5 0 -14 -13 -21 -30 -7 -16 -17 -30 -22 -30 -5 0 -6 -4 -3 -10 3 -5 1 -10 -4
-10 -6 0 -10 -3 -9 -7 2 -8 -33 -90 -57 -135 -8 -14 -15 -34 -15 -43 0 -10 -5
-13 -12 -9 -7 5 -9 2 -5 -8 6 -17 -19 -115 -35 -135 -7 -9 -7 -13 1 -13 8 0 8
-8 -2 -27 -7 -16 -13 -41 -12 -58 1 -16 -6 -35 -14 -42 -10 -8 -11 -12 -4 -13
8 0 11 -15 8 -42 -1 -24 -3 -51 -4 -60 -1 -10 -7 -18 -15 -18 -8 0 -18 -5 -22
-11 -4 -7 0 -9 14 -5 12 4 23 2 28 -5 4 -7 3 -9 -3 -6 -5 4 -16 -5 -23 -18 -7
-14 -17 -25 -22 -25 -5 0 -6 5 -3 10 9 15 -1 12 -14 -4 -9 -10 -7 -13 8 -12
11 0 27 10 35 21 17 22 17 23 19 -65 1 -30 5 -58 10 -61 13 -9 -35 -51 -50
-45 -7 3 -13 0 -13 -6 0 -6 -3 -8 -7 -5 -3 4 -12 -2 -20 -13 -16 -23 -35 -27
-27 -6 3 8 1 16 -3 19 -5 3 -10 -3 -10 -14 -2 -19 -33 -59 -33 -42 0 4 -5 0
-11 -10 -8 -14 -14 -15 -24 -7 -10 8 -15 8 -21 -1 -4 -8 -3 -9 4 -5 30 18 8
-14 -32 -47 -40 -33 -46 -35 -60 -22 -8 9 -17 15 -18 13 -8 -6 -106 58 -101
66 3 5 1 6 -5 2 -6 -4 -31 2 -56 13 -24 12 -69 28 -100 38 -30 9 -52 21 -49
26 3 6 1 7 -5 3 -6 -4 -37 0 -69 8 -32 9 -73 16 -91 18 -17 1 -32 5 -32 9 0 3
-85 6 -190 6 -104 0 -190 -3 -190 -7 0 -3 -16 -7 -35 -8 -20 -2 -45 -6 -58
-11 -12 -4 -32 -7 -44 -6 -12 1 -20 -2 -18 -5 3 -4 -10 -11 -28 -15 -17 -4
-39 -10 -47 -12 -8 -3 -25 -6 -37 -7 -12 0 -19 -3 -17 -5 7 -7 -178 -91 -187
-85 -5 3 -9 -1 -10 -8 0 -14 -150 -118 -169 -118 -6 0 -8 -5 -5 -11 4 -6 -2
-13 -14 -16 -12 -3 -21 -12 -21 -21 0 -8 -3 -13 -6 -10 -3 3 -24 -14 -46 -38
-22 -24 -45 -41 -52 -37 -6 3 -8 3 -4 -2 9 -9 -29 -65 -43 -65 -6 0 -8 4 -4 9
3 5 1 12 -4 15 -11 7 -9 -13 2 -31 5 -7 4 -13 0 -13 -5 0 -19 -18 -33 -40 -14
-22 -28 -40 -31 -40 -4 0 -9 -10 -12 -22 l-6 -22 -28 24 -28 25 23 -26 23 -26
-24 -41 c-13 -23 -27 -39 -32 -35 -4 5 -5 3 -2 -3 9 -15 -20 -84 -34 -84 -5 0
-8 -4 -5 -9 4 -5 1 -22 -6 -38 -6 -15 -12 -30 -13 -33 -1 -3 -7 -25 -14 -50
-7 -25 -16 -52 -19 -60 -2 -8 -6 -22 -7 -30 -1 -8 -6 -28 -9 -45 -9 -37 -17
-92 -18 -127 -1 -15 -5 -25 -10 -22 -4 3 -8 1 -8 -5 0 -5 4 -12 9 -15 11 -7 4
-67 -9 -80 -6 -6 -15 -4 -25 4 -8 7 -15 9 -15 5 0 -4 8 -14 18 -21 16 -13 16
-13 0 -14 -10 0 -18 -5 -18 -10 0 -7 6 -7 20 0 11 6 20 15 20 21 0 6 5 7 10 4
8 -5 7 -11 -1 -21 -6 -8 -8 -14 -3 -14 5 0 9 -28 8 -63 -1 -95 -2 -96 -29 -62
-20 24 -27 27 -34 16 -5 -8 -7 -20 -4 -27 3 -9 -2 -12 -16 -9 -12 2 -19 0 -16
-5 8 -13 40 -5 41 11 3 31 5 33 15 16 8 -14 7 -23 -7 -38 -9 -10 -14 -19 -9
-19 4 0 14 8 21 17 7 10 15 15 19 11 4 -4 -5 -19 -20 -34 -17 -17 -21 -24 -10
-20 10 3 23 2 30 -4 7 -6 18 -9 25 -8 13 3 33 -49 25 -63 -3 -4 1 -10 7 -12 8
-3 5 -6 -5 -6 -14 -1 -17 4 -12 19 7 23 -4 26 -24 8 -11 -11 -13 -10 -7 5 3
10 6 21 6 23 0 3 5 2 12 -2 7 -4 8 -3 4 4 -10 17 -26 15 -26 -3 0 -17 -16 -20
-25 -5 -9 14 -18 13 -41 -6 -18 -15 -18 -15 3 -5 27 13 36 14 29 2 -4 -5 -1
-20 4 -33 9 -21 10 -20 4 7 -5 28 -5 29 14 12 10 -9 22 -14 27 -10 4 5 6 2 4
-5 -3 -8 -8 -13 -13 -12 -9 2 -26 -19 -26 -32 0 -5 5 -8 11 -8 5 0 8 4 5 9 -7
11 14 20 31 14 7 -3 13 -9 13 -15 0 -6 -7 -7 -16 -4 -8 3 -13 2 -10 -3 8 -12
-22 -23 -37 -14 -7 3 -3 -3 7 -15 21 -24 36 -28 36 -11 0 5 -4 7 -10 4 -5 -3
-10 -2 -10 3 0 8 22 22 34 22 2 0 2 -11 0 -25 -1 -14 4 -32 12 -39 11 -12 11
-15 -1 -20 -8 -3 -16 3 -20 15 -4 10 -14 19 -23 19 -14 0 -14 -2 -1 -13 8 -6
22 -21 29 -31 14 -18 13 -19 -3 -13 -11 4 -16 3 -12 -4 4 -6 13 -8 20 -5 8 3
21 -6 29 -20 9 -13 12 -24 6 -24 -6 0 -13 7 -16 15 -5 13 -9 12 -24 -5 -9 -11
-20 -17 -24 -13 -3 3 -6 2 -6 -4 0 -17 29 -24 50 -13 31 16 37 11 11 -11 -18
-15 -21 -23 -13 -31 17 -17 15 -28 -4 -28 -9 0 -12 5 -8 12 5 7 3 8 -6 3 -10
-6 -9 -11 6 -22 15 -11 19 -11 27 2 5 10 4 21 -2 29 -8 10 -7 17 6 27 15 12
16 12 11 -2 -3 -9 -2 -22 3 -30 5 -9 3 -22 -7 -36 -8 -13 -10 -23 -4 -23 5 0
10 5 10 11 0 5 4 8 9 4 6 -3 14 3 20 12 9 16 10 16 11 1 0 -20 -39 -50 -53
-41 -6 4 -7 1 -2 -7 6 -10 4 -12 -11 -6 -15 5 -16 4 -7 -5 9 -9 18 -6 42 10
l30 21 -3 -25 c-1 -14 -6 -28 -9 -32 -4 -3 1 -12 11 -20 16 -13 15 -14 -5 -8
-13 4 -23 2 -23 -3 0 -12 32 -12 48 1 8 6 12 6 12 -1 0 -12 -35 -34 -42 -27
-3 3 -5 -2 -5 -10 0 -11 3 -12 14 -3 10 8 20 8 38 -2 14 -7 25 -17 25 -22 0
-5 -4 -6 -10 -3 -5 3 -10 1 -10 -5 0 -7 7 -10 15 -6 8 3 15 1 15 -4 0 -10 -3
-11 -32 -14 -15 -1 -24 -36 -9 -36 6 0 8 6 5 14 -4 10 0 13 13 11 10 -2 20 -4
23 -4 3 -1 -2 -6 -10 -11 -9 -6 -10 -10 -3 -10 6 0 15 5 18 10 3 6 11 10 16
10 5 0 2 -11 -7 -25 -15 -23 -13 -30 10 -26 5 1 6 -5 2 -14 -3 -10 -2 -14 5
-10 6 4 8 14 5 22 -4 9 -1 13 6 10 7 -2 12 -10 10 -16 -1 -7 2 -10 8 -6 5 3
10 2 10 -3 0 -5 -9 -12 -21 -15 -12 -3 -18 -10 -15 -15 3 -6 -1 -12 -9 -16 -8
-3 -15 -10 -15 -16 0 -5 9 -2 19 7 11 9 17 21 14 26 -4 6 0 8 10 4 11 -4 18 1
22 14 4 10 10 17 14 15 4 -3 13 0 21 5 13 8 12 12 -5 26 l-20 16 20 -7 c19 -6
19 -6 1 9 -10 8 -23 12 -29 8 -6 -4 -7 -1 -2 8 7 11 5 11 -11 -1 -18 -14 -18
-14 -4 4 18 23 22 48 7 40 -8 -5 -7 -2 1 7 6 7 12 17 12 23 0 5 -7 1 -16 -10
-8 -10 -13 -13 -9 -7 4 9 1 11 -9 7 -9 -3 -16 -1 -16 5 0 6 3 10 8 10 4 -1 14
-1 22 0 13 1 13 3 0 10 -8 6 -18 7 -22 5 -4 -3 -6 1 -5 8 2 7 2 10 -1 5 -5 -9
-48 44 -45 55 2 5 -3 8 -10 8 -6 0 -4 5 6 11 18 11 14 29 -6 29 -7 0 -6 -4 3
-10 11 -8 8 -9 -14 -6 -30 5 -48 16 -27 16 7 0 10 4 6 9 -3 5 -1 12 3 15 14 8
8 51 -6 49 -7 -2 -12 2 -12 8 0 5 -4 8 -8 5 -4 -2 -14 0 -22 6 -12 8 -11 9 5
4 18 -5 18 -5 3 7 -15 12 -15 14 -1 23 13 8 14 14 4 30 -11 18 -12 18 -6 -3 4
-14 2 -23 -4 -23 -6 0 -10 3 -10 8 4 21 -2 32 -13 26 -9 -5 -9 -2 1 9 7 10 9
17 3 17 -6 0 -9 11 -8 24 2 18 -1 23 -13 19 -11 -3 -10 -1 3 7 14 10 20 10 27
-1 4 -7 5 -17 3 -21 -3 -4 1 -8 8 -8 9 0 9 -3 -2 -10 -14 -9 -6 -15 15 -10 5
1 7 -1 3 -5 -4 -4 2 -22 12 -40 13 -24 15 -36 7 -44 -8 -8 -7 -11 5 -11 14 0
33 -32 30 -50 0 -3 6 -9 14 -13 8 -5 12 -12 9 -18 -4 -5 -1 -9 4 -9 6 0 11 -7
11 -15 0 -8 -5 -15 -11 -15 -5 0 -7 -5 -4 -10 5 -8 12 -7 23 2 10 7 14 9 10 4
-4 -4 2 -17 12 -28 10 -11 16 -27 13 -36 -4 -10 -2 -13 5 -8 7 4 12 3 12 -2 0
-4 9 -18 21 -30 11 -12 17 -26 14 -31 -3 -5 -1 -12 5 -16 5 -3 10 -1 10 4 0 6
17 -8 37 -31 21 -24 43 -46 48 -50 6 -5 5 -8 -3 -8 -7 0 -10 -5 -7 -10 4 -6
10 -8 15 -5 4 3 22 -7 39 -21 23 -19 29 -30 21 -39 -10 -12 -4 -25 12 -25 5 0
7 4 3 9 -3 5 -1 12 4 16 6 3 8 -6 5 -22 -3 -15 -2 -24 2 -20 4 4 13 2 21 -4
16 -14 17 3 1 19 -9 9 -9 12 -1 12 7 0 15 -9 18 -20 4 -11 10 -18 14 -16 4 3
13 1 21 -5 11 -6 12 -9 2 -9 -7 0 -10 -5 -7 -11 4 -6 13 -8 20 -5 7 2 22 -4
33 -14 11 -10 22 -16 26 -13 3 3 4 -4 1 -16 -4 -22 9 -29 20 -11 4 6 17 3 34
-10 16 -10 31 -16 35 -13 4 4 4 0 0 -10 -3 -9 -2 -17 4 -17 6 0 13 6 15 13 4
9 6 9 6 -1 1 -7 6 -10 13 -6 7 5 8 3 3 -6 -6 -10 -4 -12 8 -7 9 3 19 2 22 -4
4 -5 12 -6 18 -3 8 5 8 3 0 -7 -17 -17 -17 -32 0 -22 33 21 60 10 36 -14 -9
-9 -7 -12 10 -10 11 1 21 8 22 17 0 10 2 11 6 2 2 -6 10 -9 16 -6 7 3 3 -3 -8
-13 -11 -10 -27 -25 -35 -33 -8 -8 -12 -11 -7 -6 10 14 9 26 -4 26 -5 0 -8 -4
-4 -9 3 -5 0 -13 -6 -17 -8 -5 -9 -3 -4 6 6 9 4 11 -5 5 -9 -6 -11 -4 -5 5 5
9 4 11 -4 6 -6 -4 -9 -12 -6 -17 4 -5 1 -9 -4 -9 -15 0 -14 11 4 30 14 15 13
17 -12 15 -16 -1 -34 3 -42 9 -12 9 -13 8 -7 -4 4 -8 0 -6 -8 4 -10 12 -16 15
-16 7 0 -9 -6 -7 -17 6 -10 10 -15 14 -10 9 14 -20 7 -29 -9 -10 -8 10 -12 12
-8 4 7 -13 5 -13 -8 -2 -9 7 -15 22 -13 32 2 10 -3 24 -11 31 -8 6 -14 8 -14
3 0 -4 -6 1 -14 12 -8 10 -18 16 -22 11 -4 -4 -2 -7 4 -7 7 0 12 -4 12 -8 0
-5 -7 -9 -15 -9 -8 0 -12 4 -9 8 2 4 -5 6 -16 4 -13 -3 -18 0 -14 7 5 7 2 8
-7 4 -8 -4 -5 0 6 10 17 14 18 16 2 10 -11 -3 -16 -2 -12 4 3 6 1 10 -5 10 -7
0 -10 -7 -6 -18 6 -16 5 -16 -8 1 -10 13 -15 14 -18 6 -3 -9 -7 -7 -11 5 -5
11 -3 15 5 10 7 -5 8 -3 3 7 -7 12 -6 12 7 1 13 -10 17 -10 21 2 4 11 1 13
-10 9 -13 -5 -15 -2 -10 13 5 14 2 12 -12 -6 -11 -14 -23 -21 -27 -17 -4 4 -2
7 4 7 7 0 12 5 12 12 0 9 -3 9 -12 0 -19 -19 -29 -14 -24 13 3 17 1 23 -6 19
-7 -5 -8 -2 -3 7 7 11 5 11 -10 -1 -15 -12 -17 -12 -10 -1 6 10 4 12 -5 6 -9
-5 -11 -4 -6 4 4 6 1 14 -7 17 -16 6 -17 20 -2 44 7 13 6 13 -7 2 -11 -9 -18
-10 -23 -2 -3 5 -12 10 -18 9 -9 0 -8 -2 1 -6 6 -2 9 -9 6 -14 -3 -6 -12 -2
-20 8 -9 12 -13 13 -14 5 0 -15 -20 -6 -20 9 0 6 4 8 9 4 5 -3 12 -1 16 4 3 6
12 8 20 4 21 -7 19 -1 -7 21 -20 18 -21 18 -15 0 6 -17 6 -17 -9 1 -14 17 -16
17 -10 2 3 -10 2 -16 -3 -13 -11 7 -64 -46 -53 -53 5 -3 12 -15 15 -25 4 -10
10 -16 13 -13 3 3 0 15 -6 27 -10 18 -9 25 5 39 17 15 17 15 11 -2 -3 -10 -2
-26 4 -36 10 -20 2 -64 -10 -56 -14 9 -23 -16 -11 -28 9 -9 11 -8 6 5 -8 20
15 19 40 -2 16 -14 16 -15 -6 -22 l-24 -7 25 2 c14 1 24 8 23 15 -4 16 3 15
32 -4 14 -9 22 -21 18 -27 -4 -6 -1 -7 7 -2 10 6 12 4 7 -9 -4 -11 -3 -15 4
-11 6 4 8 13 5 20 -3 9 2 13 15 12 19 -1 25 -12 11 -20 -4 -2 -1 -2 6 -1 8 3
10 -4 6 -21 -4 -15 -2 -25 5 -25 6 0 8 8 4 18 -6 15 -5 15 10 3 21 -17 22 -31
2 -31 -12 0 -11 -4 5 -20 23 -23 39 -27 21 -6 -12 15 -4 49 10 41 4 -3 6 -12
2 -20 -3 -9 1 -15 11 -15 9 0 16 5 16 11 0 5 -4 7 -10 4 -6 -3 -7 1 -4 10 5
12 10 13 20 4 8 -6 11 -15 8 -20 -3 -5 0 -10 5 -10 6 -1 16 -3 21 -4 6 -1 13
-3 18 -4 4 -1 0 -5 -7 -10 -9 -6 -22 -6 -34 1 -13 7 -23 6 -31 -2 -8 -8 -6 -9
8 -4 12 4 17 4 13 -2 -3 -6 -1 -16 4 -24 8 -13 11 -12 20 3 5 9 15 17 21 17 6
0 3 -11 -6 -25 -9 -13 -16 -28 -16 -32 0 -4 5 0 11 10 6 9 15 15 20 11 5 -3 9
-2 8 3 -3 19 2 33 11 33 6 0 10 -6 9 -13 -4 -33 -2 -34 51 -39 22 -2 24 -7 11
-26 -6 -10 -10 -10 -21 3 -14 17 -40 20 -40 4 0 -5 5 -7 11 -4 5 4 18 0 27 -9
12 -10 22 -12 32 -6 8 5 11 10 5 10 -5 0 -4 4 4 9 16 10 41 4 41 -11 0 -6 -8
-7 -17 -4 -15 6 -15 4 2 -14 19 -21 8 -29 -13 -8 -8 8 -12 8 -12 1 0 -23 33
-23 58 -1 23 21 24 22 18 3 -7 -25 6 -47 25 -43 8 2 13 -3 12 -9 -2 -7 2 -13
7 -13 14 0 12 12 -6 38 -20 29 0 29 21 -1 l17 -22 -8 25 c-6 21 -5 23 8 12 10
-8 13 -22 10 -40 -2 -15 -2 -24 2 -21 4 4 8 19 10 35 2 15 8 30 14 32 11 3 10
-18 -4 -60 -4 -14 -2 -18 5 -14 6 4 11 15 11 24 0 10 8 18 19 19 15 1 18 -5
15 -32 l-2 -34 29 30 c16 17 34 27 39 24 11 -7 -21 -44 -32 -38 -4 2 -5 -3 -1
-13 5 -15 7 -14 16 2 16 30 31 35 46 16 12 -15 13 -15 8 0 -3 9 1 22 10 30 14
11 16 11 11 -2 -3 -9 0 -29 8 -45 l13 -30 -5 30 c-5 27 -4 28 9 12 9 -11 21
-15 32 -10 12 4 16 3 11 -5 -3 -6 -1 -14 5 -18 15 -9 40 23 32 41 -4 11 0 12
21 2 27 -13 37 -33 11 -23 -8 3 -15 1 -15 -5 0 -6 8 -9 18 -7 10 2 16 12 15
24 -2 17 3 21 31 20 18 -1 41 -8 51 -16 11 -8 17 -10 14 -5 -3 6 6 21 19 35
l25 25 -17 -33 c-17 -32 -17 -34 1 -48 30 -23 49 -13 33 17 -8 14 -6 17 10 16
15 -1 19 -6 14 -22 -6 -17 -4 -17 13 4 l20 24 18 -24 c10 -14 15 -17 12 -7 -7
20 9 34 17 16 4 -9 5 -8 5 2 -2 30 1 41 11 35 6 -4 7 1 3 12 -6 16 -5 16 11 4
24 -20 75 -21 69 -1 -3 8 7 2 21 -13 14 -15 26 -24 26 -19 0 4 -9 18 -20 30
-23 25 -24 29 -7 29 6 0 20 4 30 8 13 6 16 3 11 -9 -3 -9 -11 -13 -16 -10 -6
4 -5 -3 1 -14 12 -23 36 -20 46 6 5 13 2 13 -15 -3 -11 -10 -20 -13 -20 -7 0
18 30 41 45 36 8 -4 15 -1 15 6 0 6 5 8 12 4 8 -5 6 -11 -5 -19 -15 -11 -14
-13 7 -23 27 -12 36 -7 36 20 0 10 3 17 8 17 25 -4 33 2 23 19 -7 13 -5 20 12
30 14 8 15 11 5 8 -16 -5 -23 5 -19 27 1 5 -3 6 -8 2 -6 -3 -8 -12 -4 -20 3
-9 -1 -23 -8 -32 -10 -12 -10 -15 -1 -9 7 4 12 1 12 -8 0 -9 -6 -15 -12 -13
-7 1 -14 -8 -16 -20 -2 -14 -8 -20 -17 -17 -12 5 -12 10 1 29 11 18 13 29 5
43 -6 11 -7 22 -4 26 3 3 1 6 -6 6 -8 0 -11 -7 -7 -17 5 -15 4 -15 -9 1 -8 11
-15 15 -15 8 0 -6 -9 -9 -20 -7 -13 3 -18 0 -14 -7 4 -7 3 -8 -4 -4 -7 4 -19
-6 -30 -24 -18 -28 -20 -29 -33 -13 -12 15 -12 16 4 10 12 -5 17 -3 15 5 -2 6
-18 12 -36 13 -17 1 -29 -2 -26 -7 3 -5 9 -6 14 -3 4 3 11 -2 14 -10 4 -13 2
-14 -14 -5 -11 6 -20 8 -20 4 0 -3 -8 0 -17 7 -16 13 -17 12 -4 -4 18 -23 7
-34 -16 -16 -10 8 -14 9 -10 2 5 -8 1 -11 -13 -8 -11 2 -18 0 -16 -4 3 -4 -1
-8 -9 -8 -8 0 -11 5 -8 10 4 6 1 7 -6 3 -7 -5 -10 -14 -7 -22 3 -7 0 -16 -6
-20 -6 -4 -8 -3 -5 3 3 5 -1 20 -10 32 -11 16 -18 19 -23 11 -4 -7 -10 -8 -13
-4 -3 5 1 15 9 22 11 10 14 10 14 0 0 -6 7 -3 15 8 15 19 15 19 8 -1 -6 -19
-5 -19 13 -4 25 21 54 21 47 0 -4 -13 -2 -12 10 2 8 10 19 17 23 16 5 -1 11 0
14 1 11 4 46 11 65 13 11 1 23 7 27 12 5 6 8 5 8 -4 0 -10 3 -11 14 -2 8 7 25
14 38 15 13 2 31 7 40 10 9 4 23 9 31 10 8 1 22 8 31 15 8 7 20 10 26 6 5 -3
10 -1 10 4 0 6 7 11 15 11 9 0 27 7 40 16 14 9 25 13 25 8 0 -4 7 1 15 12 10
13 13 14 10 3 -4 -10 0 -16 10 -16 9 0 14 6 11 13 -9 23 18 35 43 18 12 -9 25
-13 29 -9 4 3 -1 11 -11 16 -9 6 -15 15 -12 20 4 5 10 7 15 4 5 -3 16 5 25 17
10 13 15 16 12 8 -5 -16 22 -70 35 -70 11 0 6 23 -7 32 -5 4 -10 16 -11 27 -1
17 2 18 23 8 17 -8 22 -16 17 -31 -5 -16 -4 -18 6 -9 7 6 20 9 29 6 14 -4 14
-3 -1 10 -16 12 -13 14 25 14 23 0 47 -4 54 -9 7 -5 14 -5 18 2 3 5 1 10 -4
10 -6 0 -11 5 -11 11 0 5 4 8 9 4 5 -3 11 3 14 12 2 10 4 3 4 -15 0 -17 -4
-32 -9 -32 -17 0 -7 -16 11 -17 16 -1 19 4 16 27 -3 20 3 34 18 46 22 19 22
19 5 -2 -22 -25 -23 -34 -3 -34 8 0 15 -5 15 -11 0 -5 -4 -8 -9 -4 -5 3 -13 0
-17 -6 -4 -8 -3 -9 4 -5 7 4 12 2 12 -3 0 -8 7 -7 20 1 11 7 15 15 9 19 -15 9
17 20 36 13 8 -4 15 -1 15 5 0 6 5 11 11 11 8 0 8 -5 -1 -15 -10 -12 -9 -16 4
-21 9 -3 13 -10 10 -15 -3 -5 -1 -9 3 -9 5 0 14 9 21 20 15 24 34 18 25 -8 -6
-14 -4 -15 9 -5 8 7 17 10 20 8 6 -6 44 -16 66 -17 6 -1 12 -5 12 -10 0 -5 6
-8 13 -7 28 4 57 -2 57 -11 0 -5 -8 -6 -17 -3 -16 6 -16 5 -4 -11 12 -15 17
-15 25 -4 6 7 24 14 40 15 17 0 24 -2 17 -7 -10 -5 -9 -9 3 -13 8 -3 18 -2 21
3 6 9 24 8 40 -2 6 -3 24 -5 42 -4 21 1 29 -2 26 -10 -6 -17 26 -11 38 7 7 11
9 11 9 1 0 -7 4 -11 9 -7 5 3 12 1 16 -5 3 -5 11 -10 17 -10 6 0 5 7 -3 17
-13 17 -13 17 5 3 22 -17 25 -17 37 2 7 10 9 10 9 1 0 -7 5 -13 11 -13 5 0 7
5 3 11 -5 8 -1 8 14 0 12 -6 23 -8 26 -3 2 4 24 7 48 7 24 -1 46 4 50 9 5 7 8
5 8 -4 0 -13 1 -13 10 0 8 13 10 13 10 1 0 -11 4 -9 15 5 15 19 15 19 9 -1 -5
-19 -5 -19 10 -1 8 10 19 15 25 12 5 -4 12 -2 16 3 3 5 14 8 25 6 11 -2 20 0
20 5 0 4 8 7 18 6 9 -2 20 2 24 8 5 8 8 7 8 -2 0 -7 5 -10 10 -7 6 4 7 12 4
18 -4 7 -4 9 1 5 4 -4 14 -3 22 3 9 9 13 8 13 0 0 -6 4 -11 10 -11 5 0 9 5 7
12 -1 7 7 12 18 12 11 0 24 6 28 13 5 8 12 11 17 8 5 -3 11 -1 15 5 4 6 11 8
16 4 5 -3 7 -10 4 -15 -4 -5 1 -12 10 -15 13 -6 14 -8 3 -15 -16 -11 -28 -11
-27 -1 3 20 -2 32 -12 26 -8 -4 -7 -9 2 -16 10 -7 8 -8 -8 -3 -12 3 -24 1 -28
-5 -3 -6 -11 -8 -16 -5 -5 3 -6 -1 -3 -9 3 -9 10 -16 16 -16 5 0 6 5 2 11 -4
7 -1 10 7 7 8 -3 15 -10 15 -16 1 -7 2 -17 3 -23 0 -5 12 1 25 15 23 26 43 36
31 16 -3 -5 -1 -10 5 -10 7 0 10 7 6 15 -9 24 11 17 32 -12 14 -19 21 -23 27
-13 5 8 4 11 -2 7 -6 -4 -13 0 -16 7 -3 8 -1 17 6 20 7 3 4 4 -7 3 -11 -1 -22
7 -27 20 -6 17 -5 21 6 16 8 -3 13 -8 11 -12 -3 -4 5 -8 17 -8 14 -1 17 1 10
5 -10 6 -9 13 3 30 18 26 34 29 34 6 0 -10 20 4 51 37 28 30 54 53 59 52 4 -1
11 4 14 13 4 11 2 12 -13 4 -15 -8 -19 -6 -17 5 4 30 24 39 38 16 7 -11 17
-21 22 -21 4 0 3 7 -4 15 -8 9 -9 15 -2 15 6 0 14 -4 17 -10 3 -5 10 -10 16
-10 5 0 1 8 -8 18 -12 13 -22 16 -30 9 -25 -19 -13 4 15 28 15 14 34 22 44 19
18 -5 43 29 33 46 -3 6 -2 10 3 10 6 0 25 14 43 32 19 17 28 28 20 23 -10 -5
-12 -4 -7 4 4 6 12 9 17 6 5 -4 9 1 9 9 0 9 5 16 10 16 6 0 10 -6 10 -14 0
-20 17 -29 26 -15 4 7 3 9 -3 6 -6 -4 -13 3 -16 15 -5 16 6 38 37 80 24 32 47
54 51 50 5 -4 5 1 2 10 -3 10 -2 20 3 23 5 3 17 21 26 40 9 20 21 32 27 28 7
-4 8 0 4 11 -5 13 -3 17 7 13 8 -3 20 2 28 11 12 15 11 16 -4 4 -9 -7 -18 -9
-20 -5 -7 13 28 73 37 65 5 -4 5 -1 1 6 -7 12 13 72 24 72 3 0 7 12 8 26 1 14
5 31 9 37 4 7 8 19 8 27 0 8 6 14 13 12 6 -1 12 2 12 8 0 5 -5 10 -11 10 -5 0
-7 5 -3 11 3 6 9 28 11 48 3 20 8 38 12 41 3 3 7 32 8 64 2 35 8 63 15 68 10
6 9 8 -2 9 -10 0 -8 3 5 9 11 5 15 9 9 9 -7 1 -15 8 -18 17 -4 12 -2 15 9 10
13 -5 14 -2 3 17 -15 27 -18 56 -6 63 4 3 8 -3 9 -13 0 -10 3 -13 5 -6 3 6 -3
24 -13 40 -10 15 -12 24 -5 20 13 -9 17 5 5 17 -11 11 -12 36 -2 36 6 0 7 6 2
13 -4 6 -8 19 -10 27 -2 18 26 52 38 44 5 -3 9 0 9 6 0 6 7 4 16 -5 9 -9 23
-14 30 -11 17 7 18 -6 2 -22 -14 -14 -32 -16 -24 -3 3 5 -1 14 -9 21 -12 10
-13 8 -10 -9 2 -12 -1 -21 -7 -21 -5 0 -8 7 -4 15 8 22 -2 18 -15 -6 -9 -17
-8 -20 3 -13 9 6 9 3 -2 -11 -11 -14 -11 -17 -1 -11 8 5 6 -3 -5 -20 -11 -15
-14 -25 -7 -21 8 5 10 -1 8 -19 -3 -30 16 -41 42 -25 15 10 14 10 -8 5 -22 -5
-25 -2 -23 18 4 34 5 35 15 13 7 -16 8 -14 3 10 -5 28 -5 29 13 13 14 -13 22
-14 33 -7 12 9 11 10 -4 5 -13 -5 -17 -2 -13 8 4 10 1 13 -7 10 -7 -3 -18 2
-25 10 -11 13 -8 15 19 11 18 -2 30 -1 27 2 -8 7 16 32 25 26 4 -2 1 -15 -8
-29 -9 -13 -12 -24 -8 -24 16 0 32 48 21 59 -7 7 -6 15 3 26 7 8 9 15 4 16 -5
0 -17 2 -26 4 -10 2 -21 -2 -25 -7 -3 -7 -1 -8 5 -4 7 4 12 2 12 -3 0 -12 -13
-15 -23 -5 -9 9 4 34 18 34 7 0 18 7 25 15 12 14 35 11 26 -4 -3 -4 1 -8 9 -8
10 0 11 5 4 18 -10 19 3 35 20 24 5 -3 12 4 16 15 3 11 11 20 16 20 15 0 19 3
81 63 63 61 68 63 86 45 9 -9 13 -7 18 5 3 9 10 14 15 11 5 -3 12 1 15 10 3 8
13 12 22 9 15 -4 15 -3 2 6 -11 8 -18 7 -27 -6 -7 -9 -13 -13 -13 -7 0 5 -7 1
-14 -9 -11 -14 -16 -15 -22 -6 -4 7 -2 15 4 17 7 2 9 9 6 14 -4 6 -3 8 2 5 5
-3 20 10 33 29 13 19 30 34 37 34 8 0 14 5 14 11 0 5 -6 7 -12 3 -7 -4 -2 5
11 19 25 28 48 37 35 15 -4 -7 -3 -9 1 -5 12 10 15 38 4 31 -5 -3 -9 0 -9 5 0
6 6 11 14 11 7 0 20 8 27 18 13 16 13 16 -5 2 -18 -14 -19 -14 -7 8 7 12 16
20 21 17 6 -3 7 1 4 9 -3 9 -1 16 6 16 6 0 9 4 5 9 -3 5 2 16 10 25 9 8 21 29
27 47 7 19 13 27 18 19 5 -8 9 -5 13 9 3 13 1 19 -5 14 -6 -3 -9 -2 -6 3 3 5
13 27 23 49 9 22 21 48 26 58 5 10 7 22 4 27 -3 4 1 14 8 22 8 7 13 21 11 31
-1 9 1 17 5 17 4 0 7 8 8 18 1 9 4 26 6 37 3 11 6 30 6 43 1 13 5 21 9 18 5
-3 9 1 9 9 0 8 -5 11 -10 8 -6 -4 -7 -1 -2 6 4 7 10 43 12 80 3 36 10 72 16
80 9 11 9 13 1 8 -9 -5 -12 18 -14 81 -1 96 -3 110 -19 196 -6 32 -8 62 -5 67
3 5 1 9 -5 9 -6 0 -13 17 -16 38 -4 20 -13 54 -21 75 -8 21 -11 43 -8 49 5 7
2 8 -6 3 -10 -6 -12 -3 -7 14 3 13 3 20 0 17 -9 -9 -82 147 -75 159 3 6 2 7
-3 3 -4 -4 -30 27 -57 68 -54 80 -89 123 -154 188 -50 50 -145 136 -151 136
-2 0 -30 17 -61 38 -72 49 -210 122 -229 122 -8 0 -11 5 -7 12 4 6 3 8 -3 5
-14 -9 -116 26 -106 36 4 5 0 5 -9 2 -9 -4 -36 -1 -59 5 -24 7 -57 14 -74 17
-16 2 -37 7 -45 10 -8 3 -82 7 -163 9 -82 2 -154 7 -160 11 -6 4 -7 1 -3 -6z
m749 -2586 c-3 -9 -8 -14 -10 -11 -3 3 -2 9 2 15 9 16 15 13 8 -4z m-4257
-411 c-4 -9 -2 -22 4 -29 8 -9 6 -14 -6 -19 -28 -11 -39 10 -20 38 19 29 31
35 22 10z m35 -171 c1 -10 1 -21 0 -25 0 -5 5 -8 12 -8 8 0 7 -4 -3 -10 -24
-15 -27 -12 -26 25 1 35 15 50 17 18z m-1 -123 c0 -5 -2 -10 -4 -10 -3 0 -8 5
-11 10 -3 6 -1 10 4 10 6 0 11 -4 11 -10z m-11 -71 c-22 -14 -33 -10 -19 6 7
8 17 12 22 9 6 -4 5 -10 -3 -15z m62 -48 c7 12 9 12 9 -1 0 -13 1 -13 10 0 7
12 9 10 7 -8 -1 -14 -6 -21 -14 -18 -7 3 -17 -3 -23 -12 -9 -15 -10 -14 -5 5
3 12 1 24 -5 28 -6 3 -7 12 -3 18 5 8 9 6 11 -7 3 -15 6 -16 13 -5z m44 -91
c-3 -4 10 -27 29 -50 21 -27 32 -51 30 -67 -2 -17 2 -23 11 -19 7 2 19 -1 25
-9 13 -16 -3 -30 -38 -30 -17 -1 -21 3 -16 17 3 11 -4 27 -22 43 -22 20 -25
27 -14 40 9 10 9 15 1 16 -6 1 -16 2 -23 3 -6 0 -13 6 -15 13 -3 8 3 11 17 8
11 -2 18 0 15 6 -4 5 -10 7 -15 4 -11 -7 -23 12 -16 23 3 5 12 9 20 9 8 0 13
-4 11 -7z m3669 -185 c-7 -16 -24 -21 -24 -6 0 8 7 13 27 20 1 1 0 -6 -3 -14z
m-3546 -15 c-2 -20 4 -30 14 -24 6 4 8 3 5 -4 -9 -13 -30 -10 -51 7 -13 11
-19 11 -33 0 -15 -13 -15 -12 -6 6 7 13 22 20 41 20 17 1 30 -2 30 -5z m62
-98 c7 2 15 -4 17 -12 3 -11 2 -12 -4 -3 -6 9 -9 1 -10 -22 -1 -32 1 -35 23
-31 13 3 24 1 24 -3 0 -4 6 -15 13 -24 11 -16 12 -15 13 8 1 15 -3 25 -12 25
-8 0 -14 5 -14 10 0 7 8 6 23 -2 12 -7 27 -13 32 -13 6 0 9 -8 7 -18 -2 -10 7
-22 22 -28 14 -7 23 -16 20 -20 -5 -8 10 -13 20 -6 3 1 15 -8 28 -20 13 -12
28 -23 33 -23 6 -1 9 -6 8 -11 -2 -5 2 -9 7 -9 6 0 10 4 10 8 0 5 12 8 28 7
21 -1 27 -6 27 -24 0 -26 41 -64 58 -54 6 4 8 0 4 -10 -4 -11 -2 -14 8 -10 8
3 12 10 8 17 -4 6 0 6 9 -2 9 -7 28 -11 43 -8 22 4 25 2 15 -9 -6 -7 -20 -12
-31 -10 -11 2 -17 0 -14 -6 4 -5 10 -7 15 -4 16 10 20 -29 4 -44 -15 -15 -16
-14 -10 5 6 21 -12 46 -30 43 -5 -1 -13 0 -19 1 -25 6 -31 8 -53 15 -21 7 -21
8 -5 22 10 8 13 12 6 9 -6 -4 -15 -1 -18 5 -4 5 -14 8 -22 5 -8 -3 -12 -2 -9
3 3 5 -1 14 -9 21 -8 7 -15 9 -15 5 0 -4 -9 4 -20 18 -14 17 -26 24 -37 20
-12 -5 -15 -2 -11 9 4 8 1 15 -7 15 -8 0 -11 -7 -7 -16 5 -14 3 -14 -11 -2 -9
7 -14 17 -11 22 3 5 0 9 -6 9 -6 0 -8 5 -5 10 7 11 4 12 -35 14 -14 1 -36 9
-50 16 -14 8 -31 15 -39 15 -22 0 -39 34 -22 44 12 8 12 12 -2 26 -10 9 -17
22 -17 28 0 8 3 8 9 -1 4 -7 14 -12 21 -10z m3327 -32 c-36 -41 -50 -50 -68
-45 -11 4 -25 -4 -38 -21 -12 -15 -21 -23 -21 -17 0 5 -9 9 -20 10 -16 1 -20
-2 -15 -18 5 -13 2 -17 -7 -14 -8 3 -14 15 -15 25 -1 11 2 18 7 15 4 -3 11 1
13 7 4 10 8 9 16 -2 10 -13 11 -13 11 0 0 8 13 22 29 31 27 16 30 16 46 0 10
-9 15 -11 11 -4 -3 6 -2 14 4 18 5 3 10 1 10 -6 0 -7 3 -10 6 -6 3 3 3 11 -1
17 -5 8 -11 8 -21 -1 -8 -6 -14 -7 -14 -2 0 6 16 18 35 29 19 10 35 23 35 29
0 5 5 3 10 -5 6 -10 3 -22 -13 -40z m-3271 28 c4 -7 3 -8 -4 -4 -7 4 -12 3
-12 -2 0 -5 10 -14 23 -20 21 -11 21 -11 -5 -7 -18 2 -25 0 -22 -9 3 -7 -2
-13 -11 -13 -19 0 -19 1 0 37 17 33 21 35 31 18z m1844 -40 c9 -20 9 -21 -2
-7 -7 9 -20 14 -28 12 -13 -4 -13 -3 0 6 19 14 18 14 30 -11z m-58 5 c-6 -2
-9 -10 -6 -15 4 -7 2 -8 -5 -4 -13 9 -5 26 12 25 9 0 8 -2 -1 -6z m106 -21
c15 12 16 11 3 -4 -15 -20 -32 -15 -30 10 1 15 2 15 6 -1 4 -15 7 -16 21 -5z
m-52 -21 c1 -6 0 -7 -3 -1 -7 15 -23 1 -16 -15 3 -8 0 -15 -5 -15 -6 0 -9 9
-7 21 3 15 0 19 -11 15 -8 -3 -12 -1 -9 4 8 13 48 6 51 -9z m-106 -6 c-10 -12
-10 -15 0 -15 8 0 11 -2 8 -5 -3 -3 -13 -3 -22 1 -15 6 -15 7 1 20 24 18 28
17 13 -1z m209 -1 c4 3 13 1 21 -4 12 -7 10 -9 -5 -8 -11 0 -27 -1 -35 -4 -8
-3 -12 -3 -7 -1 4 3 7 12 8 21 0 11 2 12 6 4 2 -6 8 -10 12 -8z m-175 -9 c-4
-8 -8 -15 -10 -15 -2 0 -4 7 -4 15 0 8 4 15 10 15 5 0 7 -7 4 -15z m261 -25
c-3 -5 -12 -10 -18 -10 -7 0 -6 4 3 10 19 12 23 12 15 0z m1035 -50 c0 -5 -6
-12 -12 -16 -7 -4 -10 -4 -6 1 4 4 3 14 -4 22 -8 11 -7 12 6 7 9 -3 16 -10 16
-14z m-2520 -98 c0 -4 10 -9 23 -10 25 -2 72 -10 72 -12 0 -3 41 -12 63 -13
12 0 22 -5 22 -10 0 -4 5 -5 12 -1 6 4 8 3 4 -4 -3 -6 -2 -13 4 -17 5 -3 10 1
10 9 0 23 27 20 40 -4 13 -24 23 -25 42 -6 16 15 59 16 71 1 4 -7 10 -7 15 0
9 13 74 16 66 3 -3 -5 -13 -7 -23 -4 -9 4 -5 -2 8 -13 14 -10 31 -17 38 -14 7
3 14 0 14 -6 1 -6 3 -15 4 -21 1 -5 3 -16 4 -22 1 -7 9 -1 19 14 15 22 21 25
31 15 10 -9 12 -9 9 3 -2 10 6 14 25 15 15 0 32 7 37 15 6 9 10 10 10 3 0 -6
9 -10 20 -8 17 3 19 1 9 -16 -6 -12 -17 -18 -25 -15 -8 3 -14 0 -14 -6 0 -6
-9 -3 -19 6 -19 17 -20 17 -32 -5 -17 -33 -37 -51 -43 -40 -3 4 -17 7 -30 6
-23 -3 -25 0 -22 27 4 32 -13 25 -18 -8 -2 -10 -8 -20 -15 -22 -10 -3 -10 0
-1 18 15 29 7 36 -22 16 -12 -9 -18 -16 -13 -16 6 0 3 -5 -5 -10 -10 -6 -20
-4 -32 7 -14 12 -18 13 -18 3 0 -9 -5 -7 -16 6 -8 10 -13 14 -10 7 4 -6 1 -15
-5 -19 -8 -4 -9 -3 -5 4 4 7 2 12 -4 12 -6 0 -9 4 -5 9 3 6 14 9 25 8 10 -1
16 -5 13 -11 -4 -5 -1 -6 7 -1 8 5 18 1 27 -10 12 -18 19 -10 14 18 0 4 4 7
10 7 8 0 7 5 -1 15 -7 9 -20 13 -28 10 -8 -3 -21 0 -29 7 -11 9 -13 9 -11 -2
2 -7 -4 -15 -12 -17 -12 -4 -12 -3 -1 5 9 7 10 12 2 16 -6 4 -11 2 -11 -3 0
-6 -3 -10 -7 -10 -28 5 -36 -2 -18 -15 18 -13 17 -14 -8 -11 -26 3 -36 -8 -18
-19 5 -4 11 0 14 6 4 10 7 11 18 1 20 -19 -4 -41 -26 -23 -8 7 -16 9 -17 4 0
-5 -2 -13 -3 -19 -2 -5 -3 -16 -4 -22 0 -7 -5 -13 -11 -13 -5 0 -9 6 -7 13 1
6 -6 12 -16 12 -10 0 -22 6 -26 14 -6 8 -14 10 -22 5 -12 -6 -12 -5 -1 8 10
13 10 17 -2 21 -8 3 -20 -1 -26 -8 -10 -12 -14 -12 -27 0 -19 19 -32 19 -39 0
-7 -17 -34 -21 -34 -5 0 6 6 10 14 10 8 0 17 4 20 9 3 5 -11 8 -32 7 -20 0
-37 4 -37 9 0 6 -4 16 -9 23 -6 10 -11 10 -20 -4 -9 -12 -15 -14 -20 -6 -10
17 1 31 22 27 9 -1 23 2 30 8 8 6 12 6 12 -1 0 -6 -3 -12 -7 -15 -5 -2 -3 -3
4 -1 19 5 23 -8 6 -21 -14 -10 -13 -12 8 -9 13 1 25 3 27 4 9 8 30 2 45 -13
18 -18 43 -14 31 5 -4 6 1 6 14 -1 26 -14 32 -14 32 0 0 5 -4 7 -10 4 -5 -3
-10 -1 -10 5 0 6 -4 9 -9 5 -5 -3 -12 -1 -16 5 -4 6 -11 7 -17 4 -7 -5 -8 -2
-3 6 5 9 4 11 -3 6 -8 -5 -10 -1 -6 11 5 15 4 16 -5 3 -9 -13 -11 -13 -12 0 0
10 -2 11 -6 2 -2 -6 -10 -9 -15 -6 -7 5 -8 2 -3 -6 5 -9 4 -11 -4 -6 -6 4 -9
12 -6 17 4 5 1 9 -4 9 -6 0 -11 -6 -11 -12 0 -7 -7 -2 -16 10 -8 12 -20 20
-25 17 -5 -3 -7 0 -6 7 2 7 2 10 0 5 -3 -4 -9 -5 -13 -2 -5 3 -12 0 -16 -6 -4
-7 -3 -9 3 -6 5 3 10 0 10 -8 0 -7 -8 -12 -19 -10 -12 3 -16 0 -12 -7 4 -7 3
-8 -4 -4 -8 5 -10 2 -6 -9 5 -11 0 -15 -17 -13 -19 2 -23 -1 -21 -17 3 -16 1
-17 -9 -8 -10 10 -10 15 1 28 7 8 8 15 2 15 -5 0 -12 6 -15 13 -5 14 19 17 40
4 6 -4 20 3 30 15 29 35 73 59 73 40z m785 -49 c11 -6 16 -15 11 -20 -5 -4
-11 -2 -14 6 -4 11 -6 11 -13 0 -4 -7 -23 -13 -42 -14 -31 0 -34 2 -26 18 6
10 14 15 19 12 5 -3 11 -1 14 4 7 11 24 9 51 -6z m-795 1 c0 -8 -19 -13 -24
-6 -3 5 1 9 9 9 8 0 15 -2 15 -3z m294 -15 c-8 -14 -21 -11 -21 5 0 8 6 12 14
9 7 -3 10 -9 7 -14z m-249 -18 c3 -5 2 -12 -3 -15 -5 -3 -9 1 -9 9 0 17 3 19
12 6z m67 -16 c2 3 5 -1 5 -9 0 -18 -23 -10 -31 10 -3 9 -11 12 -17 8 -8 -5
-9 -3 -5 5 6 9 12 9 25 -3 10 -9 20 -14 23 -11z m275 -15 c-1 -16 -3 -16 -22
-4 -12 8 -25 11 -30 7 -4 -5 -6 -3 -3 2 4 6 17 11 31 11 19 1 25 -3 24 -16z
m67 -75 c3 -8 2 -15 -3 -15 -5 0 -14 7 -21 15 -10 12 -10 15 3 15 8 0 17 -7
21 -15z"/>
<path d="M642 1696 c4 -5 2 -16 -4 -23 -9 -11 -7 -12 7 -7 11 5 16 4 12 -3 -4
-5 -1 -18 6 -27 12 -16 13 -16 13 3 0 12 -9 31 -21 44 -11 12 -17 18 -13 13z"/>
<path d="M703 1595 c0 -8 4 -12 9 -9 5 3 6 10 3 15 -9 13 -12 11 -12 -6z"/>
<path d="M904 1369 c-3 -6 -2 -15 3 -20 5 -5 9 -1 9 11 0 23 -2 24 -12 9z"/>
<path d="M1079 1250 c-8 -6 -8 -9 0 -14 6 -4 11 -2 11 4 0 6 5 8 10 5 6 -4 8
-10 5 -15 -3 -4 3 -14 13 -21 15 -12 16 -12 6 1 -6 8 -10 22 -9 31 3 16 -16
21 -36 9z"/>
<path d="M1146 1168 c3 -5 10 -6 15 -3 13 9 11 12 -6 12 -8 0 -12 -4 -9 -9z"/>
<path d="M4117 1433 c-4 -3 -7 -11 -7 -17 0 -6 5 -5 12 2 6 6 9 14 7 17 -3 3
-9 2 -12 -2z"/>
<path d="M4031 1379 c-13 -11 -22 -22 -19 -24 2 -3 15 6 28 20 28 30 24 32 -9
4z"/>
<path d="M1402 1161 c11 -19 24 -25 51 -26 21 -1 37 3 37 9 0 6 8 -3 19 -19
11 -19 27 -31 42 -32 13 -1 25 -7 27 -12 2 -5 9 -8 16 -5 7 3 18 -2 25 -10 11
-13 9 -15 -18 -11 -27 3 -30 1 -21 -14 9 -18 35 -21 58 -7 10 6 10 11 1 22
-11 13 -3 19 23 15 11 -1 2 33 -10 37 -7 2 -10 8 -6 13 3 5 1 9 -4 9 -6 0 -13
-7 -16 -16 -6 -15 -8 -15 -25 0 -10 9 -28 18 -40 21 -11 2 -26 7 -32 11 -8 4
-9 -1 -5 -17 l7 -24 -14 24 c-8 14 -23 26 -33 27 -11 1 -29 5 -41 8 -14 3 -23
0 -23 -6 0 -7 -7 -3 -16 8 -15 18 -15 18 -2 -5z m158 -41 c0 13 1 13 10 0 5
-8 10 -11 10 -6 0 5 8 2 18 -7 15 -13 21 -14 32 -4 10 10 11 9 5 -2 -6 -11 -4
-13 11 -8 19 7 19 7 0 -8 -18 -13 -22 -13 -38 2 -10 9 -18 13 -18 8 0 -4 -6
-3 -12 2 -7 6 -21 9 -30 8 -11 -2 -15 2 -11 12 5 12 7 12 14 1 7 -10 9 -10 9
2z m50 -74 c0 -3 -4 -8 -10 -11 -5 -3 -10 -1 -10 4 0 6 5 11 10 11 6 0 10 -2
10 -4z"/>
<path d="M1290 1126 c0 -2 8 -10 18 -17 15 -13 16 -12 3 4 -13 16 -21 21 -21
13z"/>
<path d="M1747 1109 c7 -7 15 -10 18 -7 3 3 -2 9 -12 12 -14 6 -15 5 -6 -5z"/>
<path d="M1796 1111 c-3 -5 1 -14 9 -21 8 -7 12 -17 8 -24 -4 -6 1 -5 10 2 9
8 21 11 27 7 22 -13 9 2 -19 23 -17 12 -32 18 -35 13z m25 -18 c13 -16 12 -17
-3 -4 -17 13 -22 21 -14 21 2 0 10 -8 17 -17z"/>
<path d="M2015 1079 c-3 -4 2 -6 10 -5 21 3 28 13 10 13 -9 0 -18 -4 -20 -8z"/>
<path d="M1926 1051 c-4 -5 -2 -12 3 -15 5 -4 12 -2 15 3 4 5 2 12 -3 15 -5 4
-12 2 -15 -3z"/>
<path d="M2145 1129 c-4 -6 -5 -12 -2 -15 2 -3 7 2 10 11 7 17 1 20 -8 4z"/>
<path d="M3109 4803 c-13 -16 -12 -17 4 -4 16 13 21 21 13 21 -2 0 -10 -8 -17
-17z"/>
<path d="M2979 4628 c-5 -18 -6 -38 -1 -34 7 8 12 36 6 36 -2 0 -4 -1 -5 -2z"/>
<path d="M2886 4542 c-3 -5 1 -9 9 -9 8 0 12 4 9 9 -3 4 -7 8 -9 8 -2 0 -6 -4
-9 -8z"/>
<path d="M2917 4512 c-15 -16 -15 -19 -2 -19 8 0 13 3 10 5 -3 3 0 11 6 19 17
20 5 16 -14 -5z"/>
<path d="M2756 4358 c3 -5 10 -6 15 -3 13 9 11 12 -6 12 -8 0 -12 -4 -9 -9z"/>
<path d="M2850 4340 c0 -5 5 -10 11 -10 5 0 7 5 4 10 -3 6 -8 10 -11 10 -2 0
-4 -4 -4 -10z"/>
<path d="M2835 4300 c-16 -7 -17 -9 -3 -9 9 -1 20 4 23 9 7 11 7 11 -20 0z"/>
<path d="M2800 4255 c-7 -9 -11 -17 -9 -20 3 -2 10 5 17 15 14 24 10 26 -8 5z"/>
<path d="M2754 4240 c0 -13 4 -16 10 -10 7 7 7 13 0 20 -6 6 -10 3 -10 -10z"/>
<path d="M2810 4200 c0 -5 5 -10 10 -10 6 0 10 5 10 10 0 6 -4 10 -10 10 -5 0
-10 -4 -10 -10z"/>
<path d="M2735 4180 c3 -5 8 -10 11 -10 2 0 4 5 4 10 0 6 -5 10 -11 10 -5 0
-7 -4 -4 -10z"/>
<path d="M2795 4171 c-3 -6 -10 -9 -15 -6 -5 3 -11 1 -15 -4 -3 -6 4 -8 16 -6
25 5 35 13 27 21 -3 3 -9 0 -13 -5z"/>
<path d="M2796 4128 c5 -7 2 -9 -8 -6 -8 4 -15 0 -15 -7 0 -10 5 -11 17 -5 10
5 21 6 26 2 5 -4 2 1 -5 11 -15 19 -26 23 -15 5z"/>
<path d="M2715 4100 c3 -5 8 -10 11 -10 2 0 4 5 4 10 0 6 -5 10 -11 10 -5 0
-7 -4 -4 -10z"/>
<path d="M2763 4079 c17 -10 17 -12 1 -23 -13 -10 -14 -15 -4 -21 8 -5 11 -4
7 2 -4 6 0 14 9 17 13 5 14 9 4 21 -7 8 -18 15 -24 15 -6 0 -3 -5 7 -11z"/>
<path d="M2777 4024 c-9 -10 12 -46 24 -39 5 4 9 12 9 18 0 8 -3 8 -9 -1 -7
-11 -9 -11 -14 2 -4 9 1 16 11 19 14 4 14 5 1 6 -9 0 -19 -2 -22 -5z"/>
<path d="M2760 3991 c0 -7 -5 -9 -12 -5 -7 5 -8 3 -3 -5 5 -9 10 -10 18 -2 6
6 8 14 4 18 -4 3 -7 1 -7 -6z"/>
<path d="M2759 3953 c-13 -17 -13 -17 6 -3 11 8 22 16 24 17 2 2 0 3 -6 3 -6
0 -17 -8 -24 -17z"/>
<path d="M2744 3926 c11 -9 24 -16 30 -16 12 0 7 5 -24 19 -24 11 -24 11 -6
-3z"/>
<path d="M2712 3925 c4 -4 4 -13 -2 -19 -6 -8 -3 -12 10 -13 11 -1 22 2 25 8
4 5 -2 6 -11 2 -11 -4 -15 -3 -10 5 3 6 1 14 -6 18 -7 4 -10 4 -6 -1z"/>
<path d="M2670 3899 c0 -5 5 -7 10 -4 6 3 10 8 10 11 0 2 -4 4 -10 4 -5 0 -10
-5 -10 -11z"/>
<path d="M2788 3867 c-15 -12 -15 -14 5 -27 19 -12 20 -11 10 2 -10 11 -10 17
-1 26 16 16 7 15 -14 -1z"/>
<path d="M2745 3839 c-6 -17 -9 -18 -23 -7 -15 12 -16 11 -3 -5 14 -18 16 -18
28 -1 13 18 17 34 9 34 -3 0 -8 -9 -11 -21z"/>
<path d="M2756 3812 l-20 -27 22 19 c12 11 25 17 28 14 3 -3 -12 -20 -33 -38
-21 -18 -28 -27 -16 -21 14 7 24 8 28 1 3 -5 -1 -10 -9 -10 -9 0 -16 -4 -16
-8 0 -13 48 -8 62 6 10 10 10 14 -1 21 -11 7 -11 9 0 14 10 4 10 6 2 6 -7 1
-13 6 -13 12 0 5 6 7 13 3 6 -4 3 2 -7 14 -11 12 -20 22 -20 22 -1 0 -10 -13
-20 -28z m31 -29 c-4 -3 -2 -12 3 -18 8 -9 6 -14 -5 -19 -9 -3 -13 -2 -10 3 3
5 1 12 -5 16 -12 8 -4 25 12 25 6 0 8 -3 5 -7z"/>
<path d="M2675 3811 c-3 -5 -2 -12 3 -15 5 -3 9 1 9 9 0 17 -3 19 -12 6z"/>
<path d="M2712 3784 c-7 -8 -8 -14 -3 -14 10 0 25 19 20 25 -2 1 -10 -3 -17
-11z"/>
<path d="M2643 3724 c9 -11 15 -24 12 -27 -3 -4 -2 -5 2 -2 4 3 8 13 9 21 1 9
0 13 -3 10 -4 -3 -13 0 -22 6 -12 10 -12 7 2 -8z"/>
<path d="M2710 3730 c0 -5 5 -10 10 -10 6 0 10 5 10 10 0 6 -4 10 -10 10 -5 0
-10 -4 -10 -10z"/>
<path d="M2615 3700 c-3 -5 -1 -10 4 -10 6 0 11 5 11 10 0 6 -2 10 -4 10 -3 0
-8 -4 -11 -10z"/>
<path d="M1230 3681 c0 -6 4 -13 10 -16 6 -3 7 1 4 9 -7 18 -14 21 -14 7z"/>
<path d="M2515 3609 c-4 -6 -5 -12 -2 -15 2 -3 7 2 10 11 7 17 1 20 -8 4z"/>
<path d="M913 3485 c0 -8 4 -12 9 -9 5 3 6 10 3 15 -9 13 -12 11 -12 -6z"/>
<path d="M5390 3459 c0 -5 5 -7 10 -4 6 3 10 8 10 11 0 2 -4 4 -10 4 -5 0 -10
-5 -10 -11z"/>
<path d="M5439 3413 c-13 -16 -12 -17 4 -4 9 7 17 15 17 17 0 8 -8 3 -21 -13z"/>
<path d="M5370 3320 c0 -5 5 -10 11 -10 5 0 7 5 4 10 -3 6 -8 10 -11 10 -2 0
-4 -4 -4 -10z"/>
<path d="M5270 3172 c9 -19 30 -23 30 -5 0 4 -3 3 -7 0 -3 -4 -12 1 -20 11
-13 15 -13 15 -3 -6z"/>
<path d="M5251 3154 c0 -11 3 -14 6 -6 3 7 2 16 -1 19 -3 4 -6 -2 -5 -13z"/>
<path d="M616 3142 c-3 -4 4 -9 15 -9 23 -2 25 3 4 10 -8 4 -16 3 -19 -1z"/>
<path d="M5195 3074 c-18 -15 -23 -22 -11 -18 15 6 17 4 11 -7 -4 -8 -6 -12
-2 -9 3 3 5 8 4 11 -1 4 7 16 17 28 25 28 18 26 -19 -5z"/>
<path d="M536 3018 c3 -5 10 -6 15 -3 13 9 11 12 -6 12 -8 0 -12 -4 -9 -9z"/>
<path d="M5185 3019 c-3 -4 2 -6 10 -5 21 3 28 13 10 13 -9 0 -18 -4 -20 -8z"/>
<path d="M469 2983 c-13 -16 -12 -17 4 -4 9 7 17 15 17 17 0 8 -8 3 -21 -13z"/>
<path d="M5186 2978 c3 -4 9 -8 15 -8 5 0 9 4 9 8 0 5 -7 9 -15 9 -8 0 -12 -4
-9 -9z"/>
<path d="M5036 2951 c-16 -16 -25 -34 -22 -40 4 -6 3 -11 -3 -11 -5 0 -11 6
-14 13 -2 6 -4 0 -4 -14 l0 -27 23 21 c24 21 32 33 14 22 -18 -11 -11 10 9 27
13 11 22 13 29 6 7 -7 10 -6 8 5 -4 28 -12 28 -40 -2z"/>
<path d="M5130 2971 c0 -7 -4 -9 -10 -6 -5 3 -10 1 -10 -4 0 -6 4 -11 9 -11
13 0 25 20 17 27 -3 4 -6 1 -6 -6z"/>
<path d="M546 2938 c3 -5 10 -6 15 -3 13 9 11 12 -6 12 -8 0 -12 -4 -9 -9z"/>
<path d="M5093 2943 c4 -6 2 -13 -4 -15 -7 -2 -6 -8 3 -16 12 -9 14 -8 13 8
-1 11 -5 23 -10 27 -4 5 -5 3 -2 -4z"/>
<path d="M5145 2940 c-3 -6 1 -7 9 -4 18 7 21 14 7 14 -6 0 -13 -4 -16 -10z"/>
<path d="M5050 2920 c0 -5 5 -10 10 -10 6 0 10 5 10 10 0 6 -4 10 -10 10 -5 0
-10 -4 -10 -10z"/>
<path d="M535 2910 c-3 -6 1 -7 9 -4 18 7 21 14 7 14 -6 0 -13 -4 -16 -10z"/>
<path d="M4959 2879 c-8 -15 -8 -19 0 -15 6 4 11 2 11 -3 0 -6 5 -11 11 -11 8
0 8 4 -1 15 -6 8 -9 19 -5 25 3 5 4 10 1 10 -3 0 -10 -10 -17 -21z"/>
<path d="M5026 2884 c-11 -8 -16 -14 -10 -14 13 0 39 18 34 24 -3 2 -14 -2
-24 -10z"/>
<path d="M5073 2886 c0 -15 22 -15 34 0 4 5 4 6 -1 2 -5 -4 -14 -3 -21 2 -8 7
-12 5 -12 -4z"/>
<path d="M466 2878 c3 -5 10 -6 15 -3 13 9 11 12 -6 12 -8 0 -12 -4 -9 -9z"/>
<path d="M513 2883 c4 -3 1 -13 -6 -21 -11 -13 -9 -14 10 -2 22 14 22 30 1 30
-6 0 -8 -3 -5 -7z"/>
<path d="M4922 2855 c-7 -8 -13 -18 -15 -22 -1 -5 -11 -7 -22 -5 -15 1 -17 0
-6 -7 8 -5 12 -18 9 -29 -4 -14 -2 -19 8 -15 7 2 11 10 8 17 -3 7 2 19 11 26
14 12 16 11 12 -11 -2 -13 -2 -18 0 -11 3 6 9 12 15 12 7 0 7 5 -1 14 -6 7 -9
21 -5 30 8 20 3 20 -14 1z"/>
<path d="M5030 2848 c-10 -21 -10 -21 3 -6 8 10 18 14 22 10 5 -4 5 -1 1 6
-10 17 -14 15 -26 -10z"/>
<path d="M5136 2858 c3 -5 10 -6 15 -3 13 9 11 12 -6 12 -8 0 -12 -4 -9 -9z"/>
<path d="M4950 2840 c0 -6 7 -10 15 -10 8 0 15 2 15 4 0 2 -7 6 -15 10 -8 3
-15 1 -15 -4z"/>
<path d="M479 2813 c-13 -16 -12 -17 4 -4 16 13 21 21 13 21 -2 0 -10 -8 -17
-17z"/>
<path d="M4990 2821 c0 -6 4 -12 8 -15 5 -3 9 1 9 9 0 8 -4 15 -9 15 -4 0 -8
-4 -8 -9z"/>
<path d="M503 2795 c0 -8 4 -12 9 -9 5 3 6 10 3 15 -9 13 -12 11 -12 -6z"/>
<path d="M4834 2799 c-4 -7 1 -16 10 -21 11 -6 15 -16 10 -30 -4 -14 -2 -18 5
-14 16 10 13 43 -5 50 -8 3 -12 10 -9 16 3 5 4 10 1 10 -3 0 -8 -5 -12 -11z"/>
<path d="M4960 2801 c0 -5 7 -11 14 -14 10 -4 13 -1 9 9 -6 15 -23 19 -23 5z"/>
<path d="M5053 2785 c0 -8 4 -12 9 -9 5 3 6 10 3 15 -9 13 -12 11 -12 -6z"/>
<path d="M444 2762 c4 -3 14 -7 22 -8 9 -1 13 0 10 4 -4 3 -14 7 -22 8 -9 1
-13 0 -10 -4z"/>
<path d="M4930 2760 c0 -5 5 -10 10 -10 6 0 10 5 10 10 0 6 -4 10 -10 10 -5 0
-10 -4 -10 -10z"/>
<path d="M5017 2755 c-4 -8 -3 -16 1 -19 4 -3 9 4 9 15 2 23 -3 25 -10 4z"/>
<path d="M494 2752 c3 -5 0 -13 -6 -15 -9 -4 -10 -6 -1 -6 17 -1 25 16 12 25
-7 4 -9 3 -5 -4z"/>
<path d="M4730 2735 c-7 -9 -11 -17 -9 -20 3 -2 10 5 17 15 14 24 10 26 -8 5z"/>
<path d="M4894 2735 c-4 -8 -11 -12 -18 -8 -6 3 -7 2 -3 -2 14 -16 36 -14 30
3 -5 11 -3 13 7 7 9 -5 11 -4 6 3 -10 16 -15 15 -22 -3z"/>
<path d="M455 2729 c-4 -6 -5 -12 -2 -15 2 -3 7 2 10 11 7 17 1 20 -8 4z"/>
<path d="M4853 2694 c-3 -8 -2 -19 3 -24 5 -5 9 1 9 16 0 28 -3 30 -12 8z"/>
<path d="M4953 2695 c0 -8 4 -12 9 -9 5 3 6 10 3 15 -9 13 -12 11 -12 -6z"/>
<path d="M462 2687 c10 -8 14 -18 10 -22 -4 -5 -1 -5 6 -1 17 10 15 14 -10 26
-21 10 -21 10 -6 -3z"/>
<path d="M4895 2690 c-4 -6 -12 -7 -18 -4 -7 4 -8 3 -4 -1 13 -15 34 -14 34 1
0 17 -4 18 -12 4z"/>
<path d="M433 2665 c0 -8 4 -12 9 -9 5 3 6 10 3 15 -9 13 -12 11 -12 -6z"/>
<path d="M396 2662 c-3 -5 1 -9 9 -9 8 0 12 4 9 9 -3 4 -7 8 -9 8 -2 0 -6 -4
-9 -8z"/>
<path d="M450 2640 c0 -5 9 -8 20 -7 21 1 18 10 -5 13 -8 1 -15 -2 -15 -6z"/>
<path d="M4819 2640 c-9 -6 -6 -8 14 -6 32 3 43 11 18 13 -9 1 -24 -2 -32 -7z"/>
<path d="M428 2623 c10 -4 10 -8 0 -21 -12 -15 -11 -16 4 -3 19 14 15 32 -5
30 -8 0 -8 -2 1 -6z"/>
<path d="M453 2573 c0 -16 1 -20 4 -10 3 10 9 14 16 10 7 -4 6 1 -2 10 -17 22
-16 22 -18 -10z"/>
<path d="M4788 2583 c7 -3 16 -2 19 1 4 3 -2 6 -13 5 -11 0 -14 -3 -6 -6z"/>
<path d="M4946 2582 c-3 -5 1 -9 9 -9 8 0 12 4 9 9 -3 4 -7 8 -9 8 -2 0 -6 -4
-9 -8z"/>
<path d="M420 2571 c0 -7 -5 -9 -12 -5 -7 5 -8 3 -3 -5 5 -9 10 -10 18 -2 6 6
8 14 4 18 -4 3 -7 1 -7 -6z"/>
<path d="M437 2539 c7 -7 15 -10 18 -7 3 3 -2 9 -12 12 -14 6 -15 5 -6 -5z"/>
<path d="M416 2525 c4 -8 11 -15 16 -15 6 0 5 6 -2 15 -7 8 -14 15 -16 15 -2
0 -1 -7 2 -15z"/>
<path d="M4776 2527 c3 -10 9 -15 12 -12 3 3 0 11 -7 18 -10 9 -11 8 -5 -6z"/>
<path d="M460 2520 c-9 -6 -10 -10 -3 -10 6 0 15 5 18 10 8 12 4 12 -15 0z"/>
<path d="M447 2483 c3 -7 9 -13 13 -13 4 0 10 6 13 13 3 7 -3 13 -13 13 -10 0
-16 -6 -13 -13z"/>
<path d="M354 2478 c-4 -7 -4 -10 1 -6 4 4 15 2 24 -5 14 -11 14 -10 2 6 -16
20 -18 21 -27 5z"/>
<path d="M390 2486 c0 -2 7 -7 16 -10 8 -3 12 -2 9 4 -6 10 -25 14 -25 6z"/>
<path d="M411 2444 c0 -11 3 -14 6 -6 3 7 2 16 -1 19 -3 4 -6 -2 -5 -13z"/>
<path d="M4756 2447 c3 -10 9 -15 12 -12 3 3 0 11 -7 18 -10 9 -11 8 -5 -6z"/>
<path d="M339 2428 c-5 -18 -6 -38 -1 -34 7 8 12 36 6 36 -2 0 -4 -1 -5 -2z"/>
<path d="M375 2409 c-4 -6 -5 -12 -2 -15 2 -3 7 2 10 11 7 17 1 20 -8 4z"/>
<path d="M440 2399 c-13 -9 -12 -10 2 -5 10 3 20 1 23 -4 4 -6 2 -10 -3 -10
-5 0 -12 -9 -15 -20 -3 -11 -10 -20 -15 -20 -6 0 -8 8 -5 19 6 22 -12 37 -23
20 -5 -8 -3 -9 6 -4 10 6 12 3 8 -13 -8 -27 8 -38 29 -20 14 11 15 10 9 -8 -3
-12 0 -28 9 -40 11 -13 14 -14 13 -4 -2 8 -7 18 -13 23 -7 5 -7 10 0 15 13 10
18 35 5 27 -5 -3 -10 -2 -10 4 0 5 4 12 10 16 9 6 3 35 -9 35 -3 0 -13 -5 -21
-11z"/>
<path d="M4753 2245 c0 -8 4 -15 9 -15 4 0 8 4 8 9 0 6 -4 12 -8 15 -5 3 -9
-1 -9 -9z"/>
<path d="M393 2225 c0 -8 4 -15 9 -15 4 0 8 4 8 9 0 6 -4 12 -8 15 -5 3 -9 -1
-9 -9z"/>
<path d="M335 2220 c3 -5 8 -10 11 -10 2 0 4 5 4 10 0 6 -5 10 -11 10 -5 0 -7
-4 -4 -10z"/>
<path d="M335 2180 c-3 -5 -1 -10 4 -10 6 0 11 5 11 10 0 6 -2 10 -4 10 -3 0
-8 -4 -11 -10z"/>
<path d="M445 2180 c3 -5 8 -10 11 -10 2 0 4 5 4 10 0 6 -5 10 -11 10 -5 0 -7
-4 -4 -10z"/>
<path d="M356 2122 c-2 -4 9 -8 25 -8 33 -2 33 4 1 11 -12 2 -24 1 -26 -3z"/>
<path d="M410 2100 c-9 -6 -10 -10 -3 -10 6 0 15 5 18 10 8 12 4 12 -15 0z"/>
<path d="M4670 2100 c0 -5 5 -10 11 -10 5 0 7 5 4 10 -3 6 -8 10 -11 10 -2 0
-4 -4 -4 -10z"/>
<path d="M365 2080 c-3 -6 1 -7 9 -4 18 7 21 14 7 14 -6 0 -13 -4 -16 -10z"/>
<path d="M404 2059 c-3 -6 -1 -16 5 -22 9 -9 10 -7 5 7 -6 15 -4 17 6 11 9 -5
11 -4 6 3 -9 15 -13 15 -22 1z"/>
<path d="M4626 2038 c3 -4 9 -8 15 -8 5 0 9 4 9 8 0 5 -7 9 -15 9 -8 0 -12 -4
-9 -9z"/>
<path d="M433 2023 c4 -3 2 -11 -3 -18 -7 -8 -6 -12 3 -12 7 0 14 9 14 19 1
10 -3 18 -9 18 -6 0 -8 -3 -5 -7z"/>
<path d="M376 1978 c3 -4 11 -5 19 -1 21 7 19 12 -4 10 -11 0 -18 -5 -15 -9z"/>
<path d="M459 1988 c-6 -12 -4 -46 2 -42 4 2 5 12 2 21 -5 12 -3 14 7 8 9 -5
11 -4 6 3 -7 11 -14 15 -17 10z"/>
<path d="M420 1971 c0 -6 4 -13 10 -16 6 -3 7 1 4 9 -7 18 -14 21 -14 7z"/>
<path d="M4670 1956 c0 -2 8 -10 18 -17 15 -13 16 -12 3 4 -13 16 -21 21 -21
13z"/>
<path d="M449 1925 c-24 -14 -24 -14 -1 -12 12 1 22 5 22 9 0 4 7 5 15 2 8 -4
15 -4 15 -1 0 13 -28 14 -51 2z"/>
<path d="M373 1915 c0 -8 4 -12 9 -9 5 3 6 10 3 15 -9 13 -12 11 -12 -6z"/>
<path d="M576 1901 c-4 -5 -2 -12 3 -15 5 -4 12 -2 15 3 4 5 2 12 -3 15 -5 4
-12 2 -15 -3z"/>
<path d="M410 1881 c0 -6 4 -12 8 -15 5 -3 9 1 9 9 0 8 -4 15 -9 15 -4 0 -8
-4 -8 -9z"/>
<path d="M4540 1886 c0 -2 7 -7 16 -10 8 -3 12 -2 9 4 -6 10 -25 14 -25 6z"/>
<path d="M481 1844 c0 -11 3 -14 6 -6 3 7 2 16 -1 19 -3 4 -6 -2 -5 -13z"/>
<path d="M4517 1829 c7 -7 15 -10 18 -7 3 3 -2 9 -12 12 -14 6 -15 5 -6 -5z"/>
<path d="M619 1807 c0 -1 -2 -10 -4 -20 -3 -15 -1 -16 13 -5 9 7 18 13 20 14
2 1 -4 4 -13 7 -8 4 -15 5 -16 4z"/>
<path d="M4526 1797 c3 -10 9 -15 12 -12 3 3 0 11 -7 18 -10 9 -11 8 -5 -6z"/>
<path d="M499 1788 c-8 -27 -5 -36 9 -30 10 4 12 7 4 10 -7 2 -10 8 -6 13 3 5
3 9 0 9 -3 0 -6 -1 -7 -2z"/>
<path d="M4470 1760 c0 -5 5 -10 11 -10 5 0 7 5 4 10 -3 6 -8 10 -11 10 -2 0
-4 -4 -4 -10z"/>
<path d="M4445 1740 c-6 -9 11 -50 21 -50 2 0 0 9 -6 19 -13 26 -13 34 2 25 7
-4 8 -3 4 4 -9 15 -13 15 -21 2z"/>
<path d="M494 1721 c0 -11 5 -17 13 -14 10 4 11 9 2 19 -15 18 -15 18 -15 -5z"/>
<path d="M557 1733 c-4 -3 -7 -11 -7 -17 0 -6 5 -5 12 2 6 6 9 14 7 17 -3 3
-9 2 -12 -2z"/>
<path d="M665 1710 c8 -9 22 -17 30 -17 13 0 13 2 0 17 -8 9 -22 17 -30 17
-13 0 -13 -2 0 -17z"/>
<path d="M516 1679 c-13 -26 -13 -29 -1 -19 8 7 15 19 15 27 0 8 5 11 12 7 7
-4 8 -3 4 4 -10 17 -13 15 -30 -19z"/>
<path d="M4430 1701 c0 -6 4 -13 10 -16 6 -3 7 1 4 9 -7 18 -14 21 -14 7z"/>
<path d="M526 1638 c3 -5 10 -6 15 -3 13 9 11 12 -6 12 -8 0 -12 -4 -9 -9z"/>
<path d="M4390 1642 c0 -5 7 -9 15 -9 8 0 12 4 9 9 -3 4 -9 8 -15 8 -5 0 -9
-4 -9 -8z"/>
<path d="M4476 1638 c3 -5 10 -6 15 -3 13 9 11 12 -6 12 -8 0 -12 -4 -9 -9z"/>
<path d="M590 1622 c0 -5 7 -9 15 -9 8 0 15 4 15 9 0 4 -7 8 -15 8 -8 0 -15
-4 -15 -8z"/>
<path d="M744 1605 c1 -14 12 -32 24 -41 12 -8 20 -19 17 -24 -3 -4 3 -7 12
-5 10 1 27 -5 38 -14 19 -15 19 -15 5 4 -25 35 -60 66 -60 53 0 -6 -6 -3 -14
7 -8 11 -12 23 -10 27 2 4 0 9 -4 12 -5 3 -8 -6 -8 -19z m61 -53 c-3 -3 -11 0
-18 7 -9 10 -8 11 6 5 10 -3 15 -9 12 -12z"/>
<path d="M4351 1611 c-21 -21 -29 -47 -11 -36 6 3 10 12 10 20 0 7 7 16 16 19
12 5 14 1 9 -17 -5 -20 -5 -20 6 -4 18 30 -5 43 -30 18z"/>
<path d="M4433 1613 c0 -9 4 -10 14 -2 7 6 13 12 13 14 0 1 -6 2 -13 2 -8 0
-14 -6 -14 -14z"/>
<path d="M570 1611 c0 -6 4 -13 10 -16 6 -3 7 1 4 9 -7 18 -14 21 -14 7z"/>
<path d="M4390 1581 c0 -6 4 -13 10 -16 6 -3 7 1 4 9 -7 18 -14 21 -14 7z"/>
<path d="M575 1569 c-4 -6 -14 -8 -24 -4 -13 5 -14 4 -3 -6 10 -11 15 -10 29
4 10 9 14 17 11 17 -4 0 -10 -5 -13 -11z"/>
<path d="M4370 1561 c0 -6 4 -13 10 -16 6 -3 7 1 4 9 -7 18 -14 21 -14 7z"/>
<path d="M4310 1550 c0 -5 5 -10 10 -10 6 0 10 5 10 10 0 6 -4 10 -10 10 -5 0
-10 -4 -10 -10z"/>
<path d="M628 1533 c7 -3 16 -2 19 1 4 3 -2 6 -13 5 -11 0 -14 -3 -6 -6z"/>
<path d="M4241 1526 c-9 -10 -8 -16 4 -26 10 -9 15 -9 15 -1 0 6 -5 11 -11 11
-8 0 -8 5 1 15 7 8 10 15 7 15 -2 0 -10 -6 -16 -14z"/>
<path d="M4513 1525 c0 -8 4 -15 9 -15 4 0 8 4 8 9 0 6 -4 12 -8 15 -5 3 -9
-1 -9 -9z"/>
<path d="M547 1519 c7 -7 15 -10 18 -7 3 3 -2 9 -12 12 -14 6 -15 5 -6 -5z"/>
<path d="M4270 1518 c0 -11 12 -10 30 2 12 7 10 9 -8 7 -12 0 -22 -5 -22 -9z"/>
<path d="M634 1503 c3 -4 -1 -14 -10 -24 -12 -13 -12 -19 -3 -25 7 -4 10 -3 6
3 -4 6 3 19 15 29 21 19 21 19 16 -4 -4 -13 -2 -20 3 -16 16 9 6 37 -14 40
-11 1 -16 0 -13 -3z"/>
<path d="M4296 1501 c-3 -4 6 -6 19 -3 14 2 25 6 25 8 0 8 -39 4 -44 -5z"/>
<path d="M856 1478 c3 -5 10 -6 15 -3 13 9 11 12 -6 12 -8 0 -12 -4 -9 -9z"/>
<path d="M4310 1486 c0 -2 7 -7 16 -10 8 -3 12 -2 9 4 -6 10 -25 14 -25 6z"/>
<path d="M886 1461 c-3 -5 3 -20 15 -32 11 -13 18 -19 15 -12 -4 6 -2 15 4 18
8 5 7 11 -1 21 -13 16 -25 18 -33 5z"/>
<path d="M4270 1460 c0 -5 5 -10 10 -10 6 0 10 5 10 10 0 6 -4 10 -10 10 -5 0
-10 -4 -10 -10z"/>
<path d="M710 1441 c0 -5 5 -13 10 -16 6 -3 10 -2 10 4 0 5 -4 13 -10 16 -5 3
-10 2 -10 -4z"/>
<path d="M4200 1438 c0 -11 12 -10 30 2 12 7 10 9 -8 7 -12 0 -22 -5 -22 -9z"/>
<path d="M615 1431 c-3 -5 -2 -12 3 -15 5 -3 9 1 9 9 0 17 -3 19 -12 6z"/>
<path d="M4255 1430 c-3 -6 1 -7 9 -4 18 7 21 14 7 14 -6 0 -13 -4 -16 -10z"/>
<path d="M4150 1399 c-20 -26 -40 -72 -23 -56 2 3 5 9 6 14 1 14 30 38 46 38
9 0 25 -3 36 -8 19 -8 19 -7 2 7 -11 8 -26 12 -35 8 -15 -5 -15 -4 -3 11 7 9
10 17 5 17 -5 0 -20 -14 -34 -31z"/>
<path d="M4230 1421 c0 -6 4 -13 10 -16 6 -3 7 1 4 9 -7 18 -14 21 -14 7z"/>
<path d="M655 1400 c3 -5 8 -10 11 -10 2 0 4 5 4 10 0 6 -5 10 -11 10 -5 0 -7
-4 -4 -10z"/>
<path d="M720 1400 c-12 -7 -10 -9 8 -7 12 0 22 5 22 9 0 11 -12 10 -30 -2z"/>
<path d="M4346 1398 c3 -5 10 -6 15 -3 13 9 11 12 -6 12 -8 0 -12 -4 -9 -9z"/>
<path d="M943 1374 c0 -9 4 -11 12 -4 7 5 14 9 16 7 2 -1 3 0 1 2 -7 11 -29 7
-29 -5z"/>
<path d="M4156 1363 c-6 -14 -5 -15 5 -6 7 7 10 15 7 18 -3 3 -9 -2 -12 -12z"/>
<path d="M4097 1353 c-4 -3 -7 -11 -7 -17 0 -6 5 -5 12 2 6 6 9 14 7 17 -3 3
-9 2 -12 -2z"/>
<path d="M1036 1333 c10 -8 17 -21 16 -31 -3 -13 -1 -14 12 -3 8 7 21 9 28 5
7 -3 3 4 -9 16 -12 13 -32 24 -44 25 -21 2 -21 1 -3 -12z"/>
<path d="M4045 1340 c-3 -5 -1 -10 4 -10 6 0 11 5 11 10 0 6 -2 10 -4 10 -3 0
-8 -4 -11 -10z"/>
<path d="M838 1323 c7 -3 16 -2 19 1 4 3 -2 6 -13 5 -11 0 -14 -3 -6 -6z"/>
<path d="M2550 1320 c0 -5 7 -10 16 -10 8 0 12 5 9 10 -3 6 -10 10 -16 10 -5
0 -9 -4 -9 -10z"/>
<path d="M2811 1323 c3 -19 -2 -33 -10 -30 -5 1 -16 -7 -24 -18 -14 -19 -16
-19 -34 -2 -11 9 -22 14 -26 11 -3 -3 -10 3 -16 14 -8 14 -21 20 -41 20 -34
-1 -32 -10 2 -13 21 -1 36 -35 16 -35 -6 0 -7 8 -4 18 5 14 4 14 -9 -2 -13
-17 -15 -17 -15 -4 0 12 -7 16 -27 13 -16 -2 -30 -4 -33 -5 -3 -2 -8 -2 -12
-1 -5 0 -7 -4 -5 -10 5 -25 -22 -18 -39 10 -21 35 -34 32 -30 -7 5 -38 -4 -47
-21 -23 -8 12 -19 19 -24 16 -5 -4 -9 -1 -9 5 0 6 -5 8 -11 4 -8 -5 -8 -9 1
-14 18 -11 -7 -24 -47 -25 -18 -1 -40 -9 -50 -17 -10 -9 -22 -17 -28 -18 -5
-1 -9 -6 -8 -10 4 -13 -26 -20 -33 -8 -4 7 -3 8 4 4 7 -4 12 -2 12 3 0 13 -17
15 -24 3 -6 -11 6 -28 24 -34 8 -2 15 -13 15 -23 0 -10 7 -20 15 -22 13 -4 13
-3 0 6 -8 5 -11 13 -7 17 3 4 14 1 23 -7 14 -11 18 -11 29 5 8 10 11 25 7 34
-5 15 -3 15 11 4 9 -8 13 -21 10 -30 -8 -21 -2 -17 36 32 25 31 39 40 67 42
28 2 33 -1 24 -11 -6 -8 -18 -11 -26 -8 -8 3 -14 1 -14 -4 0 -15 38 -13 44 3
3 8 10 14 16 14 7 0 8 -6 0 -19 -10 -20 4 -41 17 -27 4 3 1 6 -5 6 -6 0 -9 7
-6 15 6 14 8 13 19 -2 7 -10 11 -22 8 -27 -4 -5 -1 -6 5 -2 9 5 8 13 -3 30
-13 20 -13 25 1 42 15 18 15 18 9 -3 -4 -14 0 -28 13 -41 10 -10 17 -25 14
-33 -3 -11 -2 -11 7 1 8 11 6 18 -6 27 -26 20 -8 26 21 8 14 -10 23 -22 19
-28 -3 -6 -1 -7 6 -3 9 6 9 11 0 22 -7 9 -8 14 -1 14 6 0 14 -4 17 -10 3 -5
12 -10 18 -10 8 0 8 3 -2 9 -9 6 -10 10 -2 16 7 3 9 16 6 28 -6 21 -5 21 9 4
8 -11 13 -24 12 -30 -2 -7 -1 -8 2 -3 2 4 8 2 13 -5 8 -12 10 -12 18 0 5 8 16
11 26 7 14 -5 15 -9 5 -21 -7 -8 -9 -15 -5 -15 9 0 45 40 45 50 0 4 7 7 15 7
20 0 19 -4 -5 -29 -11 -12 -18 -24 -15 -26 3 -3 13 4 23 16 26 30 36 15 12
-16 -11 -13 -20 -30 -20 -36 1 -6 8 2 16 18 9 16 19 25 23 20 9 -14 64 -48 57
-35 -6 10 6 15 26 12 4 0 5 6 2 14 -4 8 -1 15 6 15 8 0 11 -9 8 -24 -3 -17 -1
-23 8 -19 7 2 10 12 8 21 -4 12 1 10 15 -6 11 -13 18 -30 14 -40 -4 -13 -2
-13 11 3 17 20 17 20 11 -5 -5 -19 -4 -22 4 -10 10 14 15 7 12 -13 -1 -5 3 -6
9 -2 6 4 5 14 -5 28 -9 14 -11 27 -6 36 5 8 7 21 4 29 -5 12 -3 12 16 1 11 -8
21 -18 21 -22 0 -5 8 -6 18 -3 9 3 24 1 32 -5 13 -9 12 -10 -2 -5 -10 3 -20 1
-23 -4 -10 -16 -46 -7 -40 10 5 11 3 12 -5 3 -9 -8 -9 -16 -1 -30 6 -11 11
-13 11 -5 0 10 4 10 16 -2 18 -18 34 -21 34 -5 0 5 -4 7 -10 4 -11 -7 -14 8
-4 18 8 8 35 -3 30 -12 -3 -4 4 -8 15 -8 11 -1 23 5 26 13 3 7 9 11 14 8 14
-8 11 -34 -3 -32 -7 2 -14 -8 -15 -22 -2 -24 -2 -24 5 -2 4 13 10 23 15 23 22
-2 28 0 23 8 -8 13 4 42 15 36 4 -3 6 -12 3 -19 -6 -15 21 -40 35 -32 5 4 12
2 16 -4 6 -9 -8 -14 -28 -11 -5 1 -6 -3 -2 -9 7 -12 20 -6 53 24 l24 21 19
-24 c11 -13 22 -22 24 -19 3 3 -7 17 -22 32 -14 15 -20 24 -12 21 10 -4 20 4
29 19 7 14 17 23 22 20 5 -3 2 -14 -7 -24 -16 -17 -11 -55 6 -44 5 3 9 -2 9
-10 0 -9 5 -16 10 -16 7 0 7 6 0 20 -6 11 -15 20 -20 20 -19 0 -10 16 10 17
11 1 18 -2 15 -6 -2 -5 5 -19 16 -32 21 -23 21 -23 15 -2 -5 15 -2 25 11 32
14 8 15 11 3 12 -8 1 -19 2 -25 4 -5 1 -16 3 -23 3 -7 1 -11 6 -8 10 6 10 36
9 54 -2 6 -4 17 -4 22 -1 7 4 9 -2 5 -17 -10 -38 16 -54 46 -27 13 11 19 18
13 15 -7 -3 -14 1 -17 8 -4 10 1 14 14 13 10 -1 19 -5 19 -11 0 -5 8 -2 18 6
9 9 23 13 30 11 11 -4 16 8 13 34 -1 7 7 10 19 8 11 -2 26 3 34 11 8 8 16 11
19 7 3 -7 3 -16 -1 -50 -1 -7 -8 -10 -16 -7 -13 5 -31 -24 -21 -34 3 -3 5 0 5
7 0 7 4 10 9 6 5 -3 12 -1 16 4 3 6 12 8 20 4 8 -3 15 0 15 7 0 6 -4 8 -10 5
-13 -8 -13 1 0 26 6 10 16 19 22 19 7 0 6 -5 -2 -15 -10 -12 -9 -16 4 -21 8
-3 21 -4 28 -1 7 3 2 6 -11 6 -20 1 -22 3 -11 16 11 13 15 13 21 3 12 -19 11
0 -1 22 -7 13 -7 21 0 25 5 3 10 2 10 -3 0 -11 35 -52 45 -52 4 0 2 7 -5 15
-10 12 -9 16 6 22 11 4 25 15 32 25 13 18 32 16 32 -3 0 -6 -4 -8 -9 -4 -6 3
-15 -4 -21 -15 -6 -11 -7 -20 -3 -20 4 0 1 -5 -7 -11 -13 -9 -13 -10 0 -6 8 2
16 9 16 15 1 7 2 17 3 23 0 5 5 8 10 4 13 -8 22 10 15 29 -4 11 -13 14 -25 11
-14 -5 -17 -2 -14 12 4 22 -33 26 -57 6 -8 -7 -19 -9 -23 -5 -5 4 -5 -1 -2
-10 3 -10 1 -20 -5 -24 -6 -4 -8 -3 -5 2 3 6 2 16 -4 24 -5 8 -9 10 -9 4 0 -6
-12 -10 -27 -9 -16 1 -34 -2 -40 -8 -7 -5 -13 -6 -13 -2 0 5 -8 1 -17 -7 -12
-10 -38 -14 -76 -13 -32 0 -61 -3 -63 -7 -3 -4 -10 -8 -15 -8 -6 0 -7 6 -3 13
6 9 4 9 -7 1 -8 -6 -31 -10 -53 -9 -23 0 -40 -4 -43 -13 -5 -11 -8 -11 -22 1
-14 11 -34 15 -43 7 -9 -7 -39 -7 -43 0 -3 5 -13 6 -22 3 -12 -5 -14 -3 -8 8
7 12 6 12 -7 1 -13 -10 -17 -10 -21 2 -7 17 -43 14 -39 -3 1 -6 -3 -11 -9 -11
-6 0 -8 -7 -5 -16 3 -9 2 -12 -5 -9 -5 4 -7 15 -4 25 6 19 -20 36 -30 20 -4
-6 -12 -10 -18 -9 -9 0 -9 2 1 6 6 2 12 9 12 15 0 6 -8 3 -19 -6 -18 -16 -20
-16 -37 6 -11 13 -26 24 -34 24 -28 3 -45 9 -52 19 -5 6 -8 4 -8 -5 0 -10 -3
-11 -8 -3 -15 23 -37 19 -37 -7 0 -16 -6 -25 -15 -25 -8 0 -14 6 -12 13 1 6
-3 12 -9 12 -5 0 -7 5 -3 11 4 8 9 7 15 -2 4 -7 5 -17 3 -21 -3 -4 0 -8 6 -8
8 0 9 7 5 18 -5 9 -8 25 -9 35 0 15 -3 15 -17 -5 l-18 -23 -25 28 c-24 26 -47
36 -45 20z m56 -69 c3 3 0 14 -8 23 -11 15 -10 15 9 -1 21 -19 31 -43 13 -31
-5 3 -12 2 -15 -3 -6 -10 55 -9 72 1 8 6 10 17 6 30 -6 20 -6 20 11 3 15 -15
16 -19 4 -27 -9 -6 -10 -9 -2 -9 7 0 17 8 22 18 6 9 11 12 11 5 0 -6 9 -10 20
-8 11 2 22 -1 25 -6 4 -5 10 -7 14 -4 5 2 16 -4 26 -15 10 -11 22 -17 26 -14
5 3 14 -6 20 -20 7 -14 16 -23 22 -19 5 3 3 9 -4 15 -11 7 -11 11 -1 15 6 2 9
10 6 15 -4 7 -2 8 5 4 6 -4 9 -12 5 -17 -7 -13 15 -41 27 -33 5 3 7 9 4 14 -3
5 -1 11 5 15 6 4 8 10 6 14 -3 4 1 8 9 8 11 0 12 -4 4 -13 -7 -8 -7 -14 1 -19
5 -3 10 0 10 7 0 9 3 9 10 -2 9 -13 10 -13 10 0 0 12 2 12 9 1 6 -9 10 -10 16
-2 4 7 12 8 18 3 11 -7 29 -8 42 -2 15 8 32 5 47 -8 16 -13 18 -13 24 2 5 14
9 15 15 4 7 -10 9 -10 9 2 0 13 2 13 9 1 7 -11 13 -12 23 -4 7 6 22 9 32 7 11
-1 25 0 30 4 6 4 36 7 66 7 30 0 62 5 70 10 8 5 18 10 23 11 4 1 8 2 10 4 10
8 37 6 37 -3 0 -8 3 -8 8 -2 11 16 29 15 29 0 0 -8 -4 -12 -9 -9 -4 3 -16 0
-25 -6 -14 -8 -14 -10 -3 -9 29 3 40 -1 40 -13 0 -9 -3 -9 -12 0 -9 9 -15 7
-25 -6 -8 -9 -12 -12 -9 -6 3 7 0 17 -8 23 -10 8 -16 8 -25 -3 -7 -8 -20 -13
-29 -11 -9 1 -22 -2 -28 -7 -8 -5 -18 -3 -27 7 -10 9 -18 11 -22 5 -3 -5 -1
-10 6 -10 7 0 9 -3 6 -7 -4 -3 -16 2 -27 12 -19 17 -19 17 -15 -4 4 -24 2 -25
-27 -10 -14 8 -23 8 -31 0 -7 -7 -4 -10 9 -10 31 -1 58 -6 73 -16 10 -6 12 -4
6 5 -5 8 -3 11 4 9 21 -7 8 -24 -19 -25 -39 -2 -41 -3 -31 -23 8 -14 7 -20 -4
-25 -15 -5 -17 -1 -19 39 -1 11 -8 20 -16 21 -8 0 -17 2 -20 4 -3 1 -16 3 -30
4 -14 0 -30 4 -36 8 -7 5 -19 -3 -29 -18 -16 -24 -17 -25 -31 -7 -10 13 -13
14 -9 2 3 -9 -3 -27 -15 -40 -19 -22 -20 -22 -18 -4 2 11 7 23 12 27 13 9 17
40 4 32 -6 -4 -8 -3 -5 3 4 6 -5 9 -21 8 -15 -1 -33 3 -41 9 -12 9 -12 8 0
-12 8 -12 16 -17 17 -12 5 13 32 -7 32 -22 0 -6 -7 -5 -15 2 -8 7 -15 9 -15 6
0 -4 -9 -2 -19 4 -16 8 -22 6 -30 -7 -6 -10 -11 -13 -11 -6 0 6 -9 11 -20 10
-13 -1 -19 -6 -15 -15 3 -8 0 -12 -7 -10 -7 3 -14 10 -14 16 -1 7 -2 16 -3 21
0 4 -11 8 -23 7 -13 -1 -35 6 -50 16 -16 11 -29 14 -33 9 -3 -6 -12 -8 -19 -5
-8 3 -17 0 -21 -6 -3 -6 -3 -10 2 -9 4 1 16 1 26 0 15 -1 16 -4 7 -22 -11 -20
-12 -20 -33 9 -15 20 -29 28 -47 27 -31 -3 -42 3 -34 17 4 6 10 5 15 -3 7 -11
9 -11 9 -1 0 7 5 10 12 6 7 -5 8 -3 3 7 -5 8 1 6 12 -4 14 -12 23 -15 28 -7 3
5 10 8 15 5 4 -3 13 1 19 9 9 11 6 13 -19 11 -19 -2 -28 1 -23 9 4 7 2 7 -7
-1 -7 -6 -19 -9 -26 -6 -8 3 -14 -1 -14 -8 0 -11 -3 -11 -10 1 -8 12 -10 12
-10 1 0 -11 -3 -11 -17 0 -14 12 -15 12 -9 0 7 -10 3 -12 -15 -6 -19 5 -21 4
-9 -4 10 -7 11 -11 3 -11 -7 0 -17 9 -23 19 -12 23 -35 22 -54 -4 -13 -18 -14
-18 -24 2 -6 11 -8 24 -4 28 4 5 1 5 -6 1 -7 -4 -10 -11 -7 -16 3 -4 -3 -11
-12 -14 -11 -5 -24 2 -39 21 -23 28 -26 26 -28 -11 -1 -21 -42 -30 -63 -14 -7
5 -18 6 -24 2 -9 -5 -10 -2 -6 10 10 26 -1 37 -23 24 -10 -7 -17 -16 -14 -20
3 -4 -2 -5 -10 -2 -9 3 -16 11 -16 16 0 6 -8 4 -17 -3 -16 -12 -17 -12 -7 1 6
8 10 25 9 38 -2 22 -1 22 21 -5 l22 -28 25 23 c18 17 27 20 32 12 6 -9 9 -9
15 -1 4 7 11 2 18 -13 7 -16 8 -28 2 -31 -13 -8 -32 4 -25 16 4 5 1 9 -4 9
-17 0 -13 -27 4 -34 23 -9 47 5 42 24 -3 11 1 17 12 16 9 0 15 5 13 13 -3 12
0 12 12 1 9 -7 16 -9 16 -5 0 5 9 0 21 -11 21 -19 21 -18 40 5 12 14 19 18 20
10 0 -8 5 -4 11 9 11 22 11 22 30 -9 11 -17 22 -29 25 -25z m978 5 c-3 -4 -14
-6 -25 -4 -14 3 -17 -1 -13 -12 5 -12 3 -14 -7 -8 -9 5 -11 4 -6 -4 4 -6 12
-9 17 -6 5 4 9 2 9 -4 0 -19 -19 -21 -29 -3 -14 26 12 62 39 55 11 -3 17 -9
15 -14z m-1370 -9 c-3 -4 -2 -10 2 -13 5 -2 3 -2 -4 -1 -7 2 -15 -1 -18 -7 -4
-5 -11 -6 -17 -3 -7 5 -9 2 -6 -8 8 -21 -26 -50 -41 -35 -17 17 -13 31 4 17 9
-8 15 -8 15 -2 0 6 -6 12 -12 15 -18 6 -39 -3 -32 -14 3 -5 0 -9 -7 -9 -10 0
-10 -3 -2 -11 6 -6 9 -18 6 -25 -4 -11 -10 -11 -35 2 -22 11 -27 18 -19 28 6
7 9 16 6 19 -3 4 -2 5 1 2 4 -2 17 4 30 14 14 11 36 18 53 16 19 -2 36 4 47
16 16 18 40 17 29 -1z m1373 -12 c-2 -5 -8 -9 -13 -9 -5 0 -11 4 -13 9 -1 5 4
9 13 9 9 0 14 -4 13 -9z m-838 -24 c0 -8 -19 -13 -24 -6 -3 5 1 9 9 9 8 0 15
-2 15 -3z m-93 -11 c-4 -3 0 -14 8 -23 14 -15 14 -18 1 -23 -8 -3 -23 2 -33
11 -11 9 -17 16 -15 15 3 -1 11 4 19 12 8 8 17 15 20 15 4 0 3 -3 0 -7z m702
-32 c8 -5 9 -11 3 -15 -5 -3 -15 1 -22 9 -14 16 -3 20 19 6z m-308 -18 c13
-16 12 -17 -3 -4 -10 7 -18 15 -18 17 0 8 8 3 21 -13z m-22 -44 c-14 -8 -39
-1 -39 11 0 14 24 18 38 7 10 -8 10 -12 1 -18z m166 11 c-3 -5 -12 -10 -18
-10 -7 0 -6 4 3 10 19 12 23 12 15 0z"/>
<path d="M2817 1275 c-4 -8 -12 -14 -19 -13 -7 2 -13 -4 -13 -12 -2 -26 6 -32
23 -17 10 8 25 13 35 12 18 -3 18 -3 0 18 -10 12 -18 23 -19 25 -1 2 -4 -4 -7
-13z m19 -17 c4 -7 3 -10 -1 -5 -5 4 -16 0 -25 -8 -14 -13 -17 -13 -17 0 0 8
4 12 8 9 4 -2 10 0 14 6 8 13 12 13 21 -2z"/>
<path d="M2595 1270 c-3 -5 -1 -10 4 -10 6 0 11 5 11 10 0 6 -2 10 -4 10 -3 0
-8 -4 -11 -10z"/>
<path d="M2520 1266 c0 -2 8 -10 18 -17 15 -13 16 -12 3 4 -13 16 -21 21 -21
13z"/>
<path d="M2718 1247 c12 -11 25 -18 29 -14 9 9 -12 30 -33 33 -14 2 -13 -1 4
-19z"/>
<path d="M3004 1242 c4 -3 14 -7 22 -8 9 -1 13 0 10 4 -4 3 -14 7 -22 8 -9 1
-13 0 -10 -4z"/>
<path d="M3058 1231 c1 -2 -6 -14 -15 -25 -10 -12 -11 -16 -4 -9 11 10 20 8
42 -8 29 -20 45 -14 28 11 -6 11 -9 12 -9 2 0 -8 -9 -3 -22 10 -13 13 -22 22
-20 19z"/>
<path d="M3685 1230 c-4 -6 -10 -8 -15 -5 -4 3 -13 -2 -19 -9 -10 -11 -9 -14
2 -12 8 1 21 7 29 14 8 6 19 8 23 4 5 -4 5 -1 1 6 -9 15 -13 15 -21 2z"/>
<path d="M3515 1200 c-3 -5 -1 -10 4 -10 6 0 11 5 11 10 0 6 -2 10 -4 10 -3 0
-8 -4 -11 -10z"/>
<path d="M3606 1198 c3 -5 10 -6 15 -3 13 9 11 12 -6 12 -8 0 -12 -4 -9 -9z"/>
<path d="M3192 1196 c4 -5 3 -15 -4 -23 -6 -7 -8 -16 -4 -20 3 -3 6 -1 6 7 0
10 3 10 14 1 10 -8 16 -9 21 -1 3 6 12 7 18 3 7 -4 6 1 -2 10 -8 10 -16 15
-19 12 -3 -3 -12 1 -21 7 -9 7 -13 8 -9 4z m38 -22 c0 -8 -19 -13 -24 -6 -3 5
1 9 9 9 8 0 15 -2 15 -3z"/>
<path d="M3266 1192 c-3 -5 1 -9 9 -9 8 0 12 4 9 9 -3 4 -7 8 -9 8 -2 0 -6 -4
-9 -8z"/>
<path d="M3325 1190 c-2 -4 5 -16 16 -26 17 -15 22 -16 29 -4 6 9 5 19 0 24
-13 13 -39 16 -45 6z m40 -12 c4 -3 2 -9 -3 -12 -5 -3 -15 1 -21 8 -10 11 -9
14 3 12 9 -1 18 -5 21 -8z"/>
<path d="M3454 1188 c-3 -4 -17 -6 -31 -4 -14 3 -22 2 -18 -2 3 -4 16 -7 28
-7 12 -1 29 -5 37 -9 8 -5 12 -6 8 -1 -4 4 -3 13 2 20 7 8 5 12 -6 12 -8 0
-17 -4 -20 -9z"/>
<path d="M3507 1159 c7 -7 15 -10 18 -7 3 3 -2 9 -12 12 -14 6 -15 5 -6 -5z"/>
<path d="M2449 1243 c-13 -16 -12 -17 4 -4 16 13 21 21 13 21 -2 0 -10 -8 -17
-17z"/>
<path d="M2339 1199 c-8 -16 -8 -24 1 -33 10 -8 11 -7 8 4 -3 8 -1 23 4 33 5
9 6 17 4 17 -3 0 -10 -9 -17 -21z"/>
<path d="M2900 1181 c0 -6 4 -13 10 -16 6 -3 7 1 4 9 -7 18 -14 21 -14 7z"/>
<path d="M4060 1319 c-13 -9 -12 -10 3 -5 15 5 17 2 13 -17 -3 -12 -3 -16 0
-9 3 6 10 9 16 6 6 -4 5 2 -1 15 -14 24 -12 24 -31 10z"/>
<path d="M4105 1320 c-3 -6 1 -7 9 -4 18 7 21 14 7 14 -6 0 -13 -4 -16 -10z"/>
<path d="M790 1294 c6 -6 6 -15 2 -20 -4 -5 -3 -6 2 -2 5 4 14 3 21 -2 8 -7
12 -5 12 5 0 7 -3 14 -6 13 -19 -2 -24 4 -11 12 12 7 10 9 -7 7 -15 -1 -19 -5
-13 -13z"/>
<path d="M836 1299 c3 -5 10 -7 15 -4 5 4 9 -1 9 -9 0 -9 5 -16 10 -16 17 0
-5 33 -24 36 -9 1 -14 -2 -10 -7z"/>
<path d="M1126 1291 c-3 -5 1 -14 8 -21 8 -6 13 -21 11 -32 -4 -16 -2 -19 7
-10 9 9 16 8 30 -5 10 -9 18 -13 18 -9 0 4 10 1 23 -6 31 -17 53 -20 38 -5
-14 14 -14 30 1 21 7 -4 8 -3 4 4 -9 15 -38 3 -29 -12 3 -6 2 -7 -3 -3 -5 5
-10 13 -10 18 -1 5 -2 12 -3 16 0 4 -8 -2 -16 -13 -8 -10 -15 -14 -14 -9 5 28
-53 86 -65 66z m38 -30 c-2 -3 -12 3 -22 13 -16 17 -16 18 5 5 12 -7 20 -15
17 -18z"/>
<path d="M4040 1293 c0 -6 8 -17 18 -24 16 -13 16 -13 2 6 -8 11 -16 22 -17
24 -2 2 -3 0 -3 -6z"/>
<path d="M905 1280 c3 -5 8 -10 11 -10 2 0 4 5 4 10 0 6 -5 10 -11 10 -5 0 -7
-4 -4 -10z"/>
<path d="M2750 1280 c0 -5 5 -10 10 -10 6 0 10 5 10 10 0 6 -4 10 -10 10 -5 0
-10 -4 -10 -10z"/>
<path d="M880 1258 c-12 -8 -12 -9 2 -5 9 3 19 1 22 -6 3 -9 5 -9 5 0 1 18
-13 23 -29 11z"/>
<path d="M3993 1240 c0 -23 3 -28 9 -16 5 9 5 23 0 32 -6 12 -9 7 -9 -16z"/>
<path d="M4176 1261 c-3 -5 2 -15 12 -22 15 -12 16 -12 5 2 -7 9 -10 19 -6 22
3 4 4 7 0 7 -3 0 -8 -4 -11 -9z"/>
<path d="M3940 1250 c-14 -9 -5 -30 13 -29 9 0 8 2 -1 6 -6 2 -10 9 -7 13 3 5
12 7 20 3 8 -3 15 -3 15 0 0 10 -27 15 -40 7z"/>
<path d="M836 1233 c-6 -14 -5 -15 5 -6 7 7 10 15 7 18 -3 3 -9 -2 -12 -12z"/>
<path d="M921 1238 c-1 -21 15 -32 25 -17 4 7 3 9 -4 5 -6 -3 -13 2 -15 11 -4
16 -5 16 -6 1z"/>
<path d="M4046 1239 c4 -8 30 -6 38 2 3 3 -5 5 -19 5 -13 0 -22 -3 -19 -7z"/>
<path d="M3913 1225 c4 -5 -2 -14 -14 -20 -20 -11 -20 -12 -3 -19 10 -4 15 -4
11 0 -4 4 1 12 10 19 13 10 14 13 2 20 -8 5 -10 4 -6 0z"/>
<path d="M4020 1220 c-9 -6 -10 -10 -3 -10 6 0 15 5 18 10 8 12 4 12 -15 0z"/>
<path d="M746 1202 c-3 -5 1 -9 9 -9 8 0 12 4 9 9 -3 4 -7 8 -9 8 -2 0 -6 -4
-9 -8z"/>
<path d="M1285 1199 c-3 -4 2 -6 10 -5 21 3 28 13 10 13 -9 0 -18 -4 -20 -8z"/>
<path d="M2456 1194 c-4 -9 -4 -19 -1 -22 2 -3 7 3 11 12 4 9 4 19 1 22 -2 3
-7 -3 -11 -12z"/>
<path d="M3950 1203 c0 -6 8 -17 18 -24 16 -13 16 -13 2 6 -8 11 -16 22 -17
24 -2 2 -3 0 -3 -6z"/>
<path d="M876 1178 c3 -5 10 -6 15 -3 13 9 11 12 -6 12 -8 0 -12 -4 -9 -9z"/>
<path d="M916 1181 c-3 -5 2 -15 12 -22 15 -12 16 -12 5 2 -7 9 -10 19 -6 22
3 4 4 7 0 7 -3 0 -8 -4 -11 -9z"/>
<path d="M948 1178 c5 -5 16 -8 23 -6 8 3 3 7 -10 11 -17 4 -21 3 -13 -5z"/>
<path d="M996 1181 c-3 -5 1 -14 9 -21 10 -9 15 -9 15 -1 0 6 -5 11 -11 11 -5
0 -7 5 -4 10 3 6 4 10 1 10 -3 0 -7 -4 -10 -9z"/>
<path d="M2225 1182 c-13 -9 -13 -31 -1 -34 5 -2 10 7 11 20 1 12 1 22 1 22
-1 0 -6 -4 -11 -8z"/>
<path d="M2490 1171 c0 -7 -4 -10 -8 -7 -5 3 -9 -2 -9 -10 0 -13 2 -13 16 0 8
9 12 19 8 22 -4 4 -7 2 -7 -5z"/>
<path d="M2716 1168 c5 -7 2 -9 -8 -6 -8 4 -15 0 -15 -7 0 -10 5 -11 19 -4 20
11 24 29 7 29 -5 0 -7 -5 -3 -12z"/>
<path d="M3670 1170 c0 -5 5 -10 10 -10 6 0 10 5 10 10 0 6 -4 10 -10 10 -5 0
-10 -4 -10 -10z"/>
<path d="M3922 1160 c-9 -15 -9 -21 1 -26 6 -4 9 -4 5 1 -4 4 -3 14 4 22 6 7
9 15 7 18 -3 2 -10 -4 -17 -15z"/>
<path d="M2433 1164 c4 -4 0 -12 -9 -19 -14 -10 -14 -13 3 -26 17 -13 17 -13
3 5 -14 18 -13 19 3 13 10 -4 16 -3 12 2 -3 5 0 11 7 13 7 3 4 7 -7 12 -11 4
-16 4 -12 0z"/>
<path d="M3644 1148 c-4 -13 -7 -29 -6 -35 2 -8 -3 -10 -13 -7 -8 3 -12 10 -9
15 3 5 1 9 -5 9 -21 0 -20 -19 1 -26 42 -14 49 -13 39 4 -6 10 -5 24 1 35 5
10 7 21 5 24 -3 2 -9 -6 -13 -19z"/>
<path d="M2776 1151 c-3 -4 6 -6 19 -3 14 2 25 6 25 8 0 8 -39 4 -44 -5z"/>
<path d="M3834 1145 c1 -8 6 -18 11 -22 4 -4 5 -3 2 4 -4 6 -2 13 5 15 8 3 6
6 -4 10 -10 4 -15 2 -14 -7z"/>
<path d="M886 1142 c-3 -5 1 -9 9 -9 8 0 12 4 9 9 -3 4 -7 8 -9 8 -2 0 -6 -4
-9 -8z"/>
<path d="M1070 1140 c0 -5 7 -7 15 -4 8 4 15 8 15 10 0 2 -7 4 -15 4 -8 0 -15
-4 -15 -10z"/>
<path d="M2086 1138 c3 -5 10 -6 15 -3 13 9 11 12 -6 12 -8 0 -12 -4 -9 -9z"/>
<path d="M2546 1138 c3 -4 9 -8 15 -8 5 0 9 4 9 8 0 5 -7 9 -15 9 -8 0 -12 -4
-9 -9z"/>
<path d="M2719 1133 c-13 -16 -12 -17 4 -4 9 7 17 15 17 17 0 8 -8 3 -21 -13z"/>
<path d="M2850 1130 c-6 -11 -8 -20 -6 -20 3 0 10 9 16 20 6 11 8 20 6 20 -3
0 -10 -9 -16 -20z"/>
<path d="M3793 1132 c2 -12 6 -24 10 -28 3 -4 4 4 2 16 -6 30 -16 40 -12 12z"/>
<path d="M975 1131 c-3 -5 -2 -12 3 -15 5 -3 9 1 9 9 0 17 -3 19 -12 6z"/>
<path d="M2277 1120 c3 -11 7 -20 9 -20 2 0 4 9 4 20 0 11 -4 20 -9 20 -5 0
-7 -9 -4 -20z"/>
<path d="M2496 1127 c3 -10 9 -15 12 -12 3 3 0 11 -7 18 -10 9 -11 8 -5 -6z"/>
<path d="M2622 1124 c10 -10 20 -16 22 -13 3 3 -5 11 -17 18 -21 13 -21 12 -5
-5z"/>
<path d="M2875 1131 c-3 -6 3 -14 13 -20 14 -7 19 -6 19 4 0 7 -7 11 -15 7
-10 -3 -13 -1 -8 6 4 7 5 12 2 12 -3 0 -7 -4 -11 -9z"/>
<path d="M1080 1120 c-9 -6 -10 -10 -3 -10 6 0 15 5 18 10 8 12 4 12 -15 0z"/>
<path d="M1920 1115 c-7 -8 -17 -12 -23 -8 -6 3 -7 1 -3 -6 5 -8 12 -9 19 -3
7 5 20 8 29 7 11 -2 15 2 11 11 -7 18 -17 18 -33 -1z"/>
<path d="M2360 1120 c-8 -5 -10 -10 -5 -10 6 0 17 5 25 10 8 5 11 10 5 10 -5
0 -17 -5 -25 -10z"/>
<path d="M2745 1120 c-3 -6 1 -7 9 -4 18 7 21 14 7 14 -6 0 -13 -4 -16 -10z"/>
<path d="M2980 1115 c0 -8 2 -15 4 -15 2 0 6 7 10 15 3 8 1 15 -4 15 -6 0 -10
-7 -10 -15z"/>
<path d="M3740 1119 c0 -5 5 -7 10 -4 6 3 10 8 10 11 0 2 -4 4 -10 4 -5 0 -10
-5 -10 -11z"/>
<path d="M1033 1093 c0 -9 4 -10 14 -2 7 6 13 12 13 14 0 1 -6 2 -13 2 -8 0
-14 -6 -14 -14z"/>
<path d="M1128 1103 c6 -2 9 -10 6 -15 -4 -7 -2 -8 5 -4 13 9 5 26 -12 25 -9
0 -8 -2 1 -6z"/>
<path d="M2386 1098 c3 -4 9 -8 15 -8 5 0 9 4 9 8 0 5 -7 9 -15 9 -8 0 -12 -4
-9 -9z"/>
<path d="M2956 1098 c5 -8 1 -9 -12 -4 -14 5 -16 4 -7 -5 6 -6 16 -8 22 -5 14
9 14 26 0 26 -5 0 -7 -5 -3 -12z"/>
<path d="M3473 1100 c2 -8 0 -23 -5 -32 -5 -10 -6 -18 -4 -18 13 0 24 37 15
51 -9 12 -10 12 -6 -1z"/>
<path d="M3559 1093 c-13 -16 -12 -17 2 -5 14 10 18 10 23 -3 6 -18 26 -20 26
-3 0 6 -3 8 -7 5 -3 -4 -11 0 -18 9 -10 14 -13 14 -26 -3z"/>
<path d="M3078 1088 c-7 -17 15 -19 29 -3 4 4 3 5 -4 2 -6 -4 -13 -2 -15 5 -3
8 -6 6 -10 -4z"/>
<path d="M3135 1089 c-4 -6 -4 -13 -1 -16 3 -4 6 -1 6 5 0 6 8 13 18 15 15 4
15 5 0 6 -9 0 -20 -4 -23 -10z"/>
<path d="M3735 1090 c-4 -6 -11 -8 -16 -5 -5 4 -9 1 -9 -4 0 -16 16 -13 30 4
7 8 10 15 7 15 -3 0 -9 -5 -12 -10z"/>
<path d="M3770 1096 c0 -2 8 -10 18 -17 15 -13 16 -12 3 4 -13 16 -21 21 -21
13z"/>
<path d="M1160 1080 c-9 -6 -10 -10 -3 -10 6 0 15 5 18 10 8 12 4 12 -15 0z"/>
<path d="M2260 1079 c0 -5 5 -7 10 -4 6 3 10 8 10 11 0 2 -4 4 -10 4 -5 0 -10
-5 -10 -11z"/>
<path d="M2980 1080 c-8 -5 -10 -10 -5 -10 6 0 17 5 25 10 8 5 11 10 5 10 -5
0 -17 -5 -25 -10z"/>
<path d="M3220 1086 c0 -2 7 -6 15 -10 8 -3 15 -1 15 4 0 6 -7 10 -15 10 -8 0
-15 -2 -15 -4z"/>
<path d="M3332 1073 c2 -9 11 -17 21 -19 9 -1 15 2 11 7 -3 5 -10 6 -16 3 -7
-5 -9 -1 -5 9 3 10 2 17 -4 17 -6 0 -9 -7 -7 -17z"/>
<path d="M2393 1065 c0 -8 4 -12 9 -9 5 3 6 10 3 15 -9 13 -12 11 -12 -6z"/>
<path d="M3015 1069 c-4 -6 -5 -12 -2 -15 2 -3 7 2 10 11 7 17 1 20 -8 4z"/>
<path d="M3156 1067 c3 -10 9 -15 12 -12 3 3 0 11 -7 18 -10 9 -11 8 -5 -6z"/>
<path d="M3626 1065 c-11 -8 -15 -15 -9 -15 6 0 16 7 23 15 16 19 11 19 -14 0z"/>
<path d="M1055 1060 c3 -5 8 -10 11 -10 2 0 4 5 4 10 0 6 -5 10 -11 10 -5 0
-7 -4 -4 -10z"/>
<path d="M1176 1062 c-2 -4 -1 -14 4 -22 7 -11 9 -9 7 8 -1 24 -3 26 -11 14z"/>
<path d="M1235 1059 c-4 -6 -4 -13 -1 -16 3 -3 1 -11 -4 -18 -7 -8 -5 -12 5
-12 8 0 12 4 9 9 -3 4 0 8 5 8 6 0 11 5 11 11 0 5 -5 7 -12 3 -8 -5 -9 -2 -5
9 7 19 2 23 -8 6z"/>
<path d="M2236 1054 c-8 -20 -8 -24 2 -24 4 0 8 9 9 20 2 24 -3 26 -11 4z"/>
<path d="M2855 1060 c-3 -5 -1 -10 4 -10 6 0 11 5 11 10 0 6 -2 10 -4 10 -3 0
-8 -4 -11 -10z"/>
<path d="M3115 1061 c6 -10 4 -13 -7 -9 -8 4 -15 1 -15 -6 0 -6 8 -12 17 -12
18 0 21 19 5 33 -4 5 -5 2 0 -6z"/>
<path d="M3213 1055 c-3 -9 -3 -18 -1 -21 3 -3 8 4 11 16 6 23 -1 27 -10 5z"/>
<path d="M3310 1065 c0 -5 5 -17 10 -25 5 -8 10 -10 10 -5 0 6 -5 17 -10 25
-5 8 -10 11 -10 5z"/>
<path d="M3540 1066 c0 -2 9 -6 20 -9 11 -3 18 -1 14 4 -5 9 -34 13 -34 5z"/>
<path d="M1201 1044 c0 -11 3 -14 6 -6 3 7 2 16 -1 19 -3 4 -6 -2 -5 -13z"/>
<path d="M2153 1046 c-9 -11 -9 -15 0 -19 7 -3 14 3 14 14 2 22 2 22 -14 5z"/>
<path d="M3049 1043 c-13 -16 -12 -17 4 -4 16 13 21 21 13 21 -2 0 -10 -8 -17
-17z"/>
<path d="M3388 1053 c7 -3 16 -2 19 1 4 3 -2 6 -13 5 -11 0 -14 -3 -6 -6z"/>
<path d="M3430 1053 c5 -2 8 -9 4 -14 -3 -5 0 -9 6 -9 15 0 7 23 -8 26 -7 1
-8 0 -2 -3z"/>
<path d="M3655 1049 c-4 -6 -5 -12 -2 -15 2 -3 7 2 10 11 7 17 1 20 -8 4z"/>
<path d="M3230 1043 c0 -6 8 -17 18 -24 16 -13 16 -13 2 6 -8 11 -16 22 -17
24 -2 2 -3 0 -3 -6z"/>
<path d="M3273 1037 c0 -7 9 -13 19 -13 10 0 18 1 18 3 0 1 -8 7 -18 12 -13 7
-19 6 -19 -2z"/>
<path d="M3530 1035 c5 -7 6 -16 2 -21 -4 -5 -3 -5 2 -1 15 12 15 34 0 34 -9
0 -11 -4 -4 -12z"/>
<path d="M3346 1025 c-11 -8 -15 -15 -9 -15 6 0 16 7 23 15 16 19 11 19 -14 0z"/>
<path d="M3615 1031 c-3 -5 -2 -12 3 -15 5 -3 9 1 9 9 0 17 -3 19 -12 6z"/>
<path d="M1273 1015 c0 -8 4 -12 9 -9 4 3 8 9 8 15 0 5 -4 9 -8 9 -5 0 -9 -7
-9 -15z"/>
<path d="M1392 1002 c-8 -24 -7 -28 9 -28 12 0 15 4 8 12 -5 6 -7 19 -3 28 3
9 4 16 1 16 -3 0 -9 -13 -15 -28z"/>
<path d="M1980 1021 c0 -5 9 -7 20 -4 11 3 20 7 20 9 0 2 -9 4 -20 4 -11 0
-20 -4 -20 -9z"/>
<path d="M2059 1028 c-6 -21 -5 -37 2 -32 5 3 6 10 3 16 -5 7 -1 9 9 5 10 -3
17 -2 17 3 0 8 -28 15 -31 8z"/>
<path d="M2196 1013 c-6 -14 -5 -15 5 -6 7 7 10 15 7 18 -3 3 -9 -2 -12 -12z"/>
<path d="M2270 1019 c0 -5 5 -7 10 -4 6 3 10 8 10 11 0 2 -4 4 -10 4 -5 0 -10
-5 -10 -11z"/>
<path d="M2326 1022 c-3 -5 1 -9 9 -9 8 0 12 4 9 9 -3 4 -7 8 -9 8 -2 0 -6 -4
-9 -8z"/>
<path d="M2975 1020 c-3 -5 -1 -10 4 -10 6 0 11 5 11 10 0 6 -2 10 -4 10 -3 0
-8 -4 -11 -10z"/>
<path d="M2030 1011 c0 -7 -4 -9 -10 -6 -6 4 -7 -1 -3 -11 6 -15 7 -15 15 1 6
9 7 19 4 22 -3 4 -6 1 -6 -6z"/>
<path d="M3375 1009 c-4 -6 -5 -12 -2 -15 2 -3 7 2 10 11 7 17 1 20 -8 4z"/>
<path d="M3416 1007 c3 -10 9 -15 12 -12 3 3 0 11 -7 18 -10 9 -11 8 -5 -6z"/>
<path d="M3455 1011 c-3 -5 -2 -12 3 -15 5 -3 9 1 9 9 0 17 -3 19 -12 6z"/>
<path d="M1330 1002 c0 -5 7 -9 15 -9 8 0 12 4 9 9 -3 4 -9 8 -15 8 -5 0 -9
-4 -9 -8z"/>
<path d="M1492 993 c2 -10 12 -18 23 -18 11 1 24 -4 28 -10 5 -6 7 -4 4 5 -2
8 -14 14 -26 14 -15 -1 -20 3 -17 12 3 8 1 14 -5 14 -6 0 -9 -8 -7 -17z"/>
<path d="M1728 1003 c15 -6 16 -24 1 -20 -22 4 -20 -22 3 -33 21 -10 21 -10 6
3 -19 15 -25 33 -9 22 6 -3 14 3 20 12 9 17 11 17 25 -2 8 -11 16 -15 16 -9 0
17 -22 30 -50 31 -14 1 -19 -1 -12 -4z"/>
<path d="M2095 1000 c-3 -5 -1 -10 4 -10 6 0 11 5 11 10 0 6 -2 10 -4 10 -3 0
-8 -4 -11 -10z"/>
<path d="M3293 991 c0 -11 5 -18 9 -15 4 3 5 11 1 19 -7 21 -12 19 -10 -4z"/>
<path d="M1910 991 c0 -5 5 -13 10 -16 6 -3 10 -2 10 4 0 5 -4 13 -10 16 -5 3
-10 2 -10 -4z"/>
<path d="M1980 996 c0 -2 7 -7 16 -10 8 -3 12 -2 9 4 -6 10 -25 14 -25 6z"/>
<path d="M2153 985 c0 -8 4 -12 9 -9 5 3 6 10 3 15 -9 13 -12 11 -12 -6z"/>
<path d="M3335 991 c-3 -5 -2 -12 3 -15 5 -3 9 1 9 9 0 17 -3 19 -12 6z"/>
<path d="M1436 973 c-6 -14 -5 -15 5 -6 7 7 10 15 7 18 -3 3 -9 -2 -12 -12z"/>
<path d="M2210 979 c0 -5 5 -7 10 -4 6 3 10 8 10 11 0 2 -4 4 -10 4 -5 0 -10
-5 -10 -11z"/>
<path d="M3136 973 c-6 -14 -5 -15 5 -6 7 7 10 15 7 18 -3 3 -9 -2 -12 -12z"/>
<path d="M1796 963 c-6 -14 -5 -15 5 -6 7 7 10 15 7 18 -3 3 -9 -2 -12 -12z"/>
<path d="M2051 964 c0 -11 3 -14 6 -6 3 7 2 16 -1 19 -3 4 -6 -2 -5 -13z"/>
<path d="M1470 962 c0 -5 7 -9 15 -9 8 0 12 4 9 9 -3 4 -9 8 -15 8 -5 0 -9 -4
-9 -8z"/>
<path d="M1575 961 c-3 -5 0 -13 6 -17 7 -4 9 -3 5 4 -3 6 2 13 11 15 16 4 16
5 1 6 -9 0 -19 -3 -23 -8z"/>
<path d="M1650 960 c0 -5 5 -10 10 -10 6 0 10 5 10 10 0 6 -4 10 -10 10 -5 0
-10 -4 -10 -10z"/>
<path d="M1690 961 c0 -6 4 -13 10 -16 6 -3 7 1 4 9 -7 18 -14 21 -14 7z"/>
<path d="M1762 956 c7 -8 15 -12 17 -11 5 6 -10 25 -20 25 -5 0 -4 -6 3 -14z"/>
<path d="M1890 966 c0 -2 7 -7 16 -10 8 -3 12 -2 9 4 -6 10 -25 14 -25 6z"/>
<path d="M1936 953 c-6 -14 -5 -15 5 -6 7 7 10 15 7 18 -3 3 -9 -2 -12 -12z"/>
<path d="M2016 953 c-6 -14 -5 -15 5 -6 7 7 10 15 7 18 -3 3 -9 -2 -12 -12z"/>
<path d="M3616 962 c-3 -5 1 -9 9 -9 8 0 12 4 9 9 -3 4 -7 8 -9 8 -2 0 -6 -4
-9 -8z"/>
<path d="M1515 951 c-3 -5 -2 -12 3 -15 5 -3 9 1 9 9 0 17 -3 19 -12 6z"/>
<path d="M1290 946 c0 -2 7 -7 16 -10 8 -3 12 -2 9 4 -6 10 -25 14 -25 6z"/>
<path d="M1335 940 c3 -5 8 -10 11 -10 2 0 4 5 4 10 0 6 -5 10 -11 10 -5 0 -7
-4 -4 -10z"/>
<path d="M1875 942 c3 -3 -1 -12 -7 -21 -8 -10 -4 -9 10 3 26 23 26 23 7 23
-8 0 -13 -3 -10 -5z"/>
<path d="M2130 940 c0 -5 5 -10 11 -10 5 0 7 5 4 10 -3 6 -8 10 -11 10 -2 0
-4 -4 -4 -10z"/>
<path d="M1773 913 c0 -9 4 -10 14 -2 7 6 13 12 13 14 0 1 -6 2 -13 2 -8 0
-14 -6 -14 -14z"/>
<path d="M1897 915 c-4 -8 -3 -16 1 -19 4 -3 9 4 9 15 2 23 -3 25 -10 4z"/>
<path d="M1980 926 c0 -2 8 -10 18 -17 15 -13 16 -12 3 4 -13 16 -21 21 -21
13z"/>
</g>
</svg>
